<svg xmlns="http://www.w3.org/2000/svg" xmlns:xlink="http://www.w3.org/1999/xlink" width="50" zoomAndPan="magnify" viewBox="0 0 37.5 37.499999" height="50" preserveAspectRatio="xMidYMid meet" version="1.0"><defs><clipPath id="d27df7c848"><path d="M 18 4 L 33 4 L 33 28.863281 L 18 28.863281 Z M 18 4 " clip-rule="nonzero"/></clipPath><clipPath id="368d73ab61"><path d="M 17 4 L 32 4 L 32 28.863281 L 17 28.863281 Z M 17 4 " clip-rule="nonzero"/></clipPath></defs><path fill="#eaeaea" d="M 4.8125 13.171875 C 4.8125 13.171875 0.0078125 19.128906 0.136719 23.0625 C 0.261719 26.992188 3.957031 28.863281 10.429688 27.386719 C 16.902344 25.910156 24.105469 27.078125 27.875 27.660156 C 31.648438 28.242188 36.746094 26.925781 36.871094 21.65625 C 36.996094 16.386719 31.015625 12.433594 27.222656 10.105469 C 23.433594 7.777344 16.558594 3.699219 12.199219 5.945312 C 7.84375 8.191406 4.8125 13.171875 4.8125 13.171875 Z M 4.8125 13.171875 " fill-opacity="1" fill-rule="nonzero"/><path fill="#eaeaea" d="M 19.847656 4.90625 L 31.515625 4.90625 C 31.648438 4.90625 31.777344 4.929688 31.898438 4.980469 C 32.023438 5.03125 32.128906 5.101562 32.222656 5.195312 C 32.316406 5.289062 32.390625 5.394531 32.441406 5.515625 C 32.492188 5.636719 32.515625 5.765625 32.515625 5.894531 L 32.515625 26.945312 C 32.515625 27.074219 32.492188 27.203125 32.441406 27.324219 C 32.390625 27.445312 32.316406 27.550781 32.222656 27.644531 C 32.128906 27.738281 32.023438 27.808594 31.898438 27.859375 C 31.777344 27.910156 31.648438 27.933594 31.515625 27.933594 L 19.847656 27.933594 C 19.714844 27.933594 19.585938 27.910156 19.464844 27.859375 C 19.339844 27.808594 19.234375 27.738281 19.140625 27.644531 C 19.046875 27.550781 18.972656 27.445312 18.921875 27.324219 C 18.871094 27.203125 18.847656 27.074219 18.847656 26.945312 L 18.847656 5.894531 C 18.847656 5.765625 18.871094 5.636719 18.921875 5.515625 C 18.972656 5.394531 19.046875 5.289062 19.140625 5.195312 C 19.234375 5.101562 19.339844 5.03125 19.464844 4.980469 C 19.585938 4.929688 19.714844 4.90625 19.847656 4.90625 Z M 19.847656 4.90625 " fill-opacity="1" fill-rule="nonzero"/><g clip-path="url(#d27df7c848)"><path fill="#cecece" d="M 31.515625 28.011719 L 19.847656 28.011719 C 19.253906 28.011719 18.765625 27.53125 18.765625 26.945312 L 18.765625 5.894531 C 18.765625 5.308594 19.253906 4.828125 19.847656 4.828125 L 31.515625 4.828125 C 32.113281 4.828125 32.597656 5.308594 32.597656 5.894531 L 32.597656 26.945312 C 32.597656 27.53125 32.113281 28.011719 31.515625 28.011719 Z M 19.847656 4.984375 C 19.339844 4.984375 18.925781 5.390625 18.925781 5.894531 L 18.925781 26.945312 C 18.925781 27.445312 19.339844 27.855469 19.847656 27.855469 L 31.515625 27.855469 C 32.023438 27.855469 32.4375 27.445312 32.4375 26.945312 L 32.4375 5.894531 C 32.4375 5.390625 32.023438 4.984375 31.515625 4.984375 Z M 19.847656 4.984375 " fill-opacity="1" fill-rule="nonzero"/></g><path fill="#ffffff" d="M 18.722656 4.90625 L 30.390625 4.90625 C 30.523438 4.90625 30.652344 4.929688 30.773438 4.980469 C 30.898438 5.03125 31.003906 5.101562 31.097656 5.195312 C 31.191406 5.289062 31.265625 5.394531 31.316406 5.515625 C 31.367188 5.636719 31.390625 5.765625 31.390625 5.894531 L 31.390625 26.945312 C 31.390625 27.074219 31.367188 27.203125 31.316406 27.324219 C 31.265625 27.445312 31.191406 27.550781 31.097656 27.644531 C 31.003906 27.738281 30.898438 27.808594 30.773438 27.859375 C 30.652344 27.910156 30.523438 27.933594 30.390625 27.933594 L 18.722656 27.933594 C 18.589844 27.933594 18.460938 27.910156 18.339844 27.859375 C 18.21875 27.808594 18.109375 27.738281 18.015625 27.644531 C 17.921875 27.550781 17.847656 27.445312 17.796875 27.324219 C 17.746094 27.203125 17.722656 27.074219 17.722656 26.945312 L 17.722656 5.894531 C 17.722656 5.765625 17.746094 5.636719 17.796875 5.515625 C 17.847656 5.394531 17.921875 5.289062 18.015625 5.195312 C 18.109375 5.101562 18.21875 5.03125 18.339844 4.980469 C 18.460938 4.929688 18.589844 4.90625 18.722656 4.90625 Z M 18.722656 4.90625 " fill-opacity="1" fill-rule="nonzero"/><g clip-path="url(#368d73ab61)"><path fill="#cecece" d="M 30.390625 28.011719 L 18.722656 28.011719 C 18.128906 28.011719 17.640625 27.53125 17.640625 26.945312 L 17.640625 5.894531 C 17.640625 5.308594 18.128906 4.828125 18.722656 4.828125 L 30.390625 4.828125 C 30.988281 4.828125 31.472656 5.308594 31.472656 5.894531 L 31.472656 26.945312 C 31.472656 27.53125 30.988281 28.011719 30.390625 28.011719 Z M 18.722656 4.984375 C 18.214844 4.984375 17.800781 5.390625 17.800781 5.894531 L 17.800781 26.945312 C 17.800781 27.445312 18.214844 27.855469 18.722656 27.855469 L 30.390625 27.855469 C 30.898438 27.855469 31.3125 27.445312 31.3125 26.945312 L 31.3125 5.894531 C 31.3125 5.390625 30.898438 4.984375 30.390625 4.984375 Z M 18.722656 4.984375 " fill-opacity="1" fill-rule="nonzero"/></g><path fill="#cecece" d="M 26.472656 27.464844 L 22.640625 27.464844 C 22.597656 27.464844 22.5625 27.429688 22.5625 27.386719 C 22.5625 27.34375 22.597656 27.3125 22.640625 27.3125 L 26.472656 27.3125 C 26.515625 27.3125 26.550781 27.34375 26.550781 27.386719 C 26.550781 27.429688 26.515625 27.464844 26.472656 27.464844 Z M 26.472656 27.464844 " fill-opacity="1" fill-rule="nonzero"/><path fill="#cecece" d="M 19.828125 6.484375 L 18.847656 6.484375 C 18.800781 6.484375 18.765625 6.449219 18.765625 6.40625 C 18.765625 6.363281 18.800781 6.328125 18.847656 6.328125 L 19.828125 6.328125 C 19.871094 6.328125 19.90625 6.363281 19.90625 6.40625 C 19.90625 6.449219 19.871094 6.484375 19.828125 6.484375 Z M 19.828125 6.484375 " fill-opacity="1" fill-rule="nonzero"/><path fill="#cecece" d="M 19.828125 6.914062 L 18.847656 6.914062 C 18.800781 6.914062 18.765625 6.878906 18.765625 6.835938 C 18.765625 6.792969 18.800781 6.757812 18.847656 6.757812 L 19.828125 6.757812 C 19.871094 6.757812 19.90625 6.792969 19.90625 6.835938 C 19.90625 6.878906 19.871094 6.914062 19.828125 6.914062 Z M 19.828125 6.914062 " fill-opacity="1" fill-rule="nonzero"/><path fill="#cecece" d="M 19.828125 7.34375 L 18.847656 7.34375 C 18.800781 7.34375 18.765625 7.308594 18.765625 7.265625 C 18.765625 7.222656 18.800781 7.1875 18.847656 7.1875 L 19.828125 7.1875 C 19.871094 7.1875 19.90625 7.222656 19.90625 7.265625 C 19.90625 7.308594 19.871094 7.34375 19.828125 7.34375 Z M 19.828125 7.34375 " fill-opacity="1" fill-rule="nonzero"/><path fill="#cecece" d="M 29.960938 7.253906 C 29.832031 7.253906 29.707031 7.207031 29.613281 7.113281 C 29.421875 6.921875 29.421875 6.617188 29.613281 6.429688 C 29.804688 6.242188 30.113281 6.242188 30.304688 6.429688 C 30.398438 6.519531 30.449219 6.640625 30.449219 6.769531 C 30.449219 6.898438 30.398438 7.019531 30.304688 7.113281 C 30.210938 7.207031 30.085938 7.253906 29.960938 7.253906 Z M 29.960938 6.445312 C 29.875 6.445312 29.789062 6.476562 29.726562 6.539062 C 29.59375 6.667969 29.59375 6.875 29.726562 7 C 29.855469 7.128906 30.0625 7.128906 30.191406 7 C 30.257812 6.941406 30.289062 6.859375 30.289062 6.769531 C 30.289062 6.683594 30.257812 6.601562 30.191406 6.539062 C 30.128906 6.476562 30.042969 6.445312 29.960938 6.445312 Z M 29.960938 6.445312 " fill-opacity="1" fill-rule="nonzero"/><path fill="#cecece" d="M 30.476562 7.359375 C 30.457031 7.359375 30.4375 7.351562 30.421875 7.339844 L 30.191406 7.113281 C 30.164062 7.082031 30.164062 7.03125 30.191406 7 C 30.222656 6.972656 30.273438 6.972656 30.304688 7 L 30.535156 7.226562 C 30.566406 7.257812 30.566406 7.308594 30.535156 7.339844 C 30.519531 7.351562 30.5 7.359375 30.476562 7.359375 Z M 30.476562 7.359375 " fill-opacity="1" fill-rule="nonzero"/><path fill="#cecece" d="M 25.097656 6.90625 C 25.089844 6.910156 25.082031 6.910156 25.078125 6.90625 L 24.804688 6.890625 L 24.421875 7.339844 C 24.40625 7.359375 24.375 7.363281 24.351562 7.34375 C 24.335938 7.332031 24.332031 7.304688 24.339844 7.285156 L 24.539062 6.871094 L 24.007812 6.835938 L 23.910156 6.960938 C 23.890625 6.984375 23.859375 6.988281 23.835938 6.96875 C 23.820312 6.957031 23.816406 6.9375 23.820312 6.921875 L 23.839844 6.824219 L 23.785156 6.820312 C 23.722656 6.8125 23.722656 6.726562 23.785156 6.722656 L 23.832031 6.71875 L 23.738281 6.425781 C 23.722656 6.371094 23.800781 6.335938 23.828125 6.386719 L 24.015625 6.707031 L 24.566406 6.667969 L 24.441406 6.238281 C 24.425781 6.183594 24.5 6.148438 24.53125 6.199219 L 24.8125 6.652344 L 25.078125 6.632812 C 25.261719 6.628906 25.28125 6.886719 25.097656 6.90625 Z M 25.097656 6.90625 " fill-opacity="1" fill-rule="nonzero"/><path fill="#7cc8f0" d="M 29.585938 13.597656 C 29.585938 13.914062 29.847656 14.175781 30.171875 14.175781 L 30.171875 15.800781 C 30.171875 16.054688 29.960938 16.261719 29.707031 16.261719 L 19.410156 16.261719 C 19.152344 16.261719 18.941406 16.054688 18.941406 15.800781 L 18.941406 14.175781 C 19.265625 14.175781 19.527344 13.914062 19.527344 13.597656 C 19.527344 13.277344 19.265625 13.019531 18.941406 13.019531 L 18.941406 11.390625 C 18.941406 11.136719 19.152344 10.929688 19.410156 10.929688 L 29.707031 10.929688 C 29.960938 10.929688 30.171875 11.136719 30.171875 11.390625 L 30.171875 13.019531 C 29.847656 13.019531 29.585938 13.277344 29.585938 13.597656 Z M 29.585938 13.597656 " fill-opacity="1" fill-rule="nonzero"/><path fill="#58b3db" d="M 22.429688 11.125 C 22.386719 11.125 22.351562 11.089844 22.351562 11.046875 L 22.351562 10.929688 C 22.351562 10.886719 22.386719 10.855469 22.429688 10.855469 C 22.472656 10.855469 22.507812 10.886719 22.507812 10.929688 L 22.507812 11.046875 C 22.507812 11.089844 22.472656 11.125 22.429688 11.125 Z M 22.429688 11.125 " fill-opacity="1" fill-rule="nonzero"/><path fill="#58b3db" d="M 22.429688 15.980469 C 22.386719 15.980469 22.351562 15.945312 22.351562 15.902344 L 22.351562 15.660156 C 22.351562 15.617188 22.386719 15.582031 22.429688 15.582031 C 22.472656 15.582031 22.507812 15.617188 22.507812 15.660156 L 22.507812 15.902344 C 22.507812 15.945312 22.472656 15.980469 22.429688 15.980469 Z M 22.429688 15.492188 C 22.386719 15.492188 22.351562 15.457031 22.351562 15.414062 L 22.351562 15.171875 C 22.351562 15.128906 22.386719 15.09375 22.429688 15.09375 C 22.472656 15.09375 22.507812 15.128906 22.507812 15.171875 L 22.507812 15.414062 C 22.507812 15.457031 22.472656 15.492188 22.429688 15.492188 Z M 22.429688 15.007812 C 22.386719 15.007812 22.351562 14.972656 22.351562 14.929688 L 22.351562 14.6875 C 22.351562 14.644531 22.386719 14.609375 22.429688 14.609375 C 22.472656 14.609375 22.507812 14.644531 22.507812 14.6875 L 22.507812 14.929688 C 22.507812 14.972656 22.472656 15.007812 22.429688 15.007812 Z M 22.429688 14.523438 C 22.386719 14.523438 22.351562 14.488281 22.351562 14.445312 L 22.351562 14.203125 C 22.351562 14.160156 22.386719 14.125 22.429688 14.125 C 22.472656 14.125 22.507812 14.160156 22.507812 14.203125 L 22.507812 14.445312 C 22.507812 14.488281 22.472656 14.523438 22.429688 14.523438 Z M 22.429688 14.039062 C 22.386719 14.039062 22.351562 14.003906 22.351562 13.960938 L 22.351562 13.71875 C 22.351562 13.675781 22.386719 13.640625 22.429688 13.640625 C 22.472656 13.640625 22.507812 13.675781 22.507812 13.71875 L 22.507812 13.960938 C 22.507812 14.003906 22.472656 14.039062 22.429688 14.039062 Z M 22.429688 13.550781 C 22.386719 13.550781 22.351562 13.515625 22.351562 13.472656 L 22.351562 13.230469 C 22.351562 13.1875 22.386719 13.152344 22.429688 13.152344 C 22.472656 13.152344 22.507812 13.1875 22.507812 13.230469 L 22.507812 13.472656 C 22.507812 13.515625 22.472656 13.550781 22.429688 13.550781 Z M 22.429688 13.066406 C 22.386719 13.066406 22.351562 13.03125 22.351562 12.988281 L 22.351562 12.746094 C 22.351562 12.703125 22.386719 12.667969 22.429688 12.667969 C 22.472656 12.667969 22.507812 12.703125 22.507812 12.746094 L 22.507812 12.988281 C 22.507812 13.03125 22.472656 13.066406 22.429688 13.066406 Z M 22.429688 12.582031 C 22.386719 12.582031 22.351562 12.546875 22.351562 12.503906 L 22.351562 12.261719 C 22.351562 12.21875 22.386719 12.183594 22.429688 12.183594 C 22.472656 12.183594 22.507812 12.21875 22.507812 12.261719 L 22.507812 12.503906 C 22.507812 12.546875 22.472656 12.582031 22.429688 12.582031 Z M 22.429688 12.097656 C 22.386719 12.097656 22.351562 12.0625 22.351562 12.019531 L 22.351562 11.777344 C 22.351562 11.734375 22.386719 11.699219 22.429688 11.699219 C 22.472656 11.699219 22.507812 11.734375 22.507812 11.777344 L 22.507812 12.019531 C 22.507812 12.0625 22.472656 12.097656 22.429688 12.097656 Z M 22.429688 11.609375 C 22.386719 11.609375 22.351562 11.578125 22.351562 11.535156 L 22.351562 11.289062 C 22.351562 11.246094 22.386719 11.214844 22.429688 11.214844 C 22.472656 11.214844 22.507812 11.246094 22.507812 11.289062 L 22.507812 11.535156 C 22.507812 11.578125 22.472656 11.609375 22.429688 11.609375 Z M 22.429688 11.609375 " fill-opacity="1" fill-rule="nonzero"/><path fill="#58b3db" d="M 22.429688 16.339844 C 22.386719 16.339844 22.351562 16.304688 22.351562 16.261719 L 22.351562 16.144531 C 22.351562 16.101562 22.386719 16.066406 22.429688 16.066406 C 22.472656 16.066406 22.507812 16.101562 22.507812 16.144531 L 22.507812 16.261719 C 22.507812 16.304688 22.472656 16.339844 22.429688 16.339844 Z M 22.429688 16.339844 " fill-opacity="1" fill-rule="nonzero"/><path fill="#c3f0ff" d="M 23.207031 11.675781 L 29.023438 11.675781 L 29.023438 12.453125 L 23.207031 12.453125 Z M 23.207031 11.675781 " fill-opacity="1" fill-rule="nonzero"/><path fill="#58b3db" d="M 23.207031 12.785156 L 26.117188 12.785156 L 26.117188 13.171875 L 23.207031 13.171875 Z M 23.207031 12.785156 " fill-opacity="1" fill-rule="nonzero"/><path fill="#c3f0ff" d="M 21.195312 11.710938 L 21.195312 15.480469 L 20.679688 15.480469 L 20.679688 11.710938 Z M 21.195312 11.710938 " fill-opacity="1" fill-rule="nonzero"/><path fill="#58b3db" d="M 20.457031 11.710938 L 20.457031 13.597656 L 20.199219 13.597656 L 20.199219 11.710938 Z M 20.457031 11.710938 " fill-opacity="1" fill-rule="nonzero"/><path fill="#c3f0ff" d="M 23.207031 14.019531 L 29.023438 14.019531 L 29.023438 14.796875 L 23.207031 14.796875 Z M 23.207031 14.019531 " fill-opacity="1" fill-rule="nonzero"/><path fill="#58b3db" d="M 23.207031 15.128906 L 26.117188 15.128906 L 26.117188 15.515625 L 23.207031 15.515625 Z M 23.207031 15.128906 " fill-opacity="1" fill-rule="nonzero"/><path fill="#eaeaea" d="M 23.929688 24.507812 L 29.253906 24.507812 C 29.457031 24.507812 29.632812 24.582031 29.777344 24.722656 C 29.921875 24.867188 29.992188 25.039062 29.992188 25.238281 C 29.992188 25.441406 29.921875 25.613281 29.777344 25.753906 C 29.632812 25.898438 29.457031 25.96875 29.253906 25.96875 L 23.929688 25.96875 C 23.726562 25.96875 23.550781 25.898438 23.40625 25.753906 C 23.261719 25.613281 23.191406 25.441406 23.191406 25.238281 C 23.191406 25.039062 23.261719 24.867188 23.40625 24.722656 C 23.550781 24.582031 23.726562 24.507812 23.929688 24.507812 Z M 23.929688 24.507812 " fill-opacity="1" fill-rule="nonzero"/><path fill="#cecece" d="M 29.253906 26.046875 L 23.929688 26.046875 C 23.480469 26.046875 23.113281 25.683594 23.113281 25.238281 C 23.113281 24.792969 23.480469 24.429688 23.929688 24.429688 L 29.253906 24.429688 C 29.707031 24.429688 30.074219 24.792969 30.074219 25.238281 C 30.074219 25.683594 29.707031 26.046875 29.253906 26.046875 Z M 23.929688 24.585938 C 23.566406 24.585938 23.269531 24.878906 23.269531 25.238281 C 23.269531 25.597656 23.566406 25.890625 23.929688 25.890625 L 29.253906 25.890625 C 29.617188 25.890625 29.914062 25.597656 29.914062 25.238281 C 29.914062 24.878906 29.617188 24.585938 29.253906 24.585938 Z M 23.929688 24.585938 " fill-opacity="1" fill-rule="nonzero"/><path fill="#b4b1b6" d="M 25.703125 25.238281 C 25.703125 25.328125 25.683594 25.394531 25.636719 25.4375 C 25.59375 25.484375 25.53125 25.507812 25.453125 25.507812 C 25.371094 25.507812 25.308594 25.484375 25.265625 25.4375 C 25.222656 25.394531 25.199219 25.324219 25.199219 25.238281 C 25.199219 25.152344 25.222656 25.085938 25.265625 25.039062 C 25.308594 24.996094 25.371094 24.972656 25.453125 24.972656 C 25.535156 24.972656 25.597656 24.996094 25.640625 25.039062 C 25.683594 25.085938 25.703125 25.152344 25.703125 25.238281 Z M 25.316406 25.238281 C 25.316406 25.296875 25.328125 25.34375 25.351562 25.371094 C 25.375 25.402344 25.40625 25.417969 25.453125 25.417969 C 25.542969 25.417969 25.585938 25.355469 25.585938 25.238281 C 25.585938 25.121094 25.542969 25.0625 25.453125 25.0625 C 25.40625 25.0625 25.375 25.078125 25.351562 25.109375 C 25.328125 25.136719 25.316406 25.179688 25.316406 25.238281 Z M 25.316406 25.238281 " fill-opacity="1" fill-rule="nonzero"/><path fill="#b4b1b6" d="M 26 25.300781 L 26 25.5 L 25.886719 25.5 L 25.886719 24.980469 L 26.042969 24.980469 C 26.113281 24.980469 26.167969 24.992188 26.199219 25.019531 C 26.234375 25.042969 26.253906 25.082031 26.253906 25.136719 C 26.253906 25.167969 26.246094 25.195312 26.226562 25.21875 C 26.210938 25.242188 26.1875 25.261719 26.15625 25.273438 C 26.234375 25.390625 26.285156 25.46875 26.308594 25.5 L 26.1875 25.5 L 26.058594 25.300781 Z M 26 25.210938 L 26.035156 25.210938 C 26.070312 25.210938 26.097656 25.207031 26.113281 25.195312 C 26.132812 25.183594 26.140625 25.164062 26.140625 25.140625 C 26.140625 25.113281 26.132812 25.097656 26.113281 25.085938 C 26.097656 25.074219 26.070312 25.070312 26.035156 25.070312 L 26 25.070312 Z M 26 25.210938 " fill-opacity="1" fill-rule="nonzero"/><path fill="#b4b1b6" d="M 26.890625 25.234375 C 26.890625 25.320312 26.863281 25.386719 26.816406 25.433594 C 26.765625 25.480469 26.695312 25.5 26.601562 25.5 L 26.449219 25.5 L 26.449219 24.980469 L 26.617188 24.980469 C 26.703125 24.980469 26.769531 25.003906 26.816406 25.046875 C 26.867188 25.09375 26.890625 25.15625 26.890625 25.234375 Z M 26.773438 25.238281 C 26.773438 25.125 26.722656 25.070312 26.621094 25.070312 L 26.5625 25.070312 L 26.5625 25.410156 L 26.609375 25.410156 C 26.71875 25.410156 26.773438 25.351562 26.773438 25.238281 Z M 26.773438 25.238281 " fill-opacity="1" fill-rule="nonzero"/><path fill="#b4b1b6" d="M 27.378906 25.5 L 27.074219 25.5 L 27.074219 24.980469 L 27.378906 24.980469 L 27.378906 25.070312 L 27.1875 25.070312 L 27.1875 25.183594 L 27.363281 25.183594 L 27.363281 25.277344 L 27.1875 25.277344 L 27.1875 25.410156 L 27.378906 25.410156 Z M 27.378906 25.5 " fill-opacity="1" fill-rule="nonzero"/><path fill="#b4b1b6" d="M 27.675781 25.300781 L 27.675781 25.5 L 27.5625 25.5 L 27.5625 24.980469 L 27.714844 24.980469 C 27.789062 24.980469 27.839844 24.992188 27.875 25.019531 C 27.910156 25.042969 27.929688 25.082031 27.929688 25.136719 C 27.929688 25.167969 27.917969 25.195312 27.902344 25.21875 C 27.886719 25.242188 27.859375 25.261719 27.828125 25.273438 C 27.910156 25.390625 27.960938 25.46875 27.984375 25.5 L 27.859375 25.5 L 27.734375 25.300781 Z M 27.675781 25.210938 L 27.710938 25.210938 C 27.746094 25.210938 27.773438 25.207031 27.789062 25.195312 C 27.804688 25.183594 27.816406 25.164062 27.816406 25.140625 C 27.816406 25.113281 27.804688 25.097656 27.789062 25.085938 C 27.773438 25.074219 27.746094 25.070312 27.707031 25.070312 L 27.675781 25.070312 Z M 27.675781 25.210938 " fill-opacity="1" fill-rule="nonzero"/><path fill="#eaeaea" d="M 22.074219 8.761719 L 27.039062 8.761719 C 27.164062 8.761719 27.269531 8.804688 27.359375 8.890625 C 27.449219 8.980469 27.492188 9.085938 27.492188 9.207031 L 27.492188 9.402344 C 27.492188 9.527344 27.449219 9.632812 27.359375 9.71875 C 27.269531 9.808594 27.164062 9.851562 27.039062 9.851562 L 22.074219 9.851562 C 21.949219 9.851562 21.84375 9.808594 21.753906 9.71875 C 21.667969 9.632812 21.621094 9.527344 21.621094 9.402344 L 21.621094 9.207031 C 21.621094 9.085938 21.667969 8.980469 21.753906 8.890625 C 21.84375 8.804688 21.949219 8.761719 22.074219 8.761719 Z M 22.074219 8.761719 " fill-opacity="1" fill-rule="nonzero"/><path fill="#cecece" d="M 22 25.957031 L 19.828125 25.957031 C 19.402344 25.957031 19.054688 25.613281 19.054688 25.195312 C 19.054688 24.773438 19.402344 24.429688 19.828125 24.429688 L 22 24.429688 C 22.425781 24.429688 22.773438 24.773438 22.773438 25.195312 C 22.773438 25.613281 22.425781 25.957031 22 25.957031 Z M 19.828125 24.585938 C 19.488281 24.585938 19.210938 24.859375 19.210938 25.195312 C 19.210938 25.527344 19.488281 25.800781 19.828125 25.800781 L 22 25.800781 C 22.339844 25.800781 22.617188 25.527344 22.617188 25.195312 C 22.617188 24.859375 22.339844 24.585938 22 24.585938 Z M 19.828125 24.585938 " fill-opacity="1" fill-rule="nonzero"/><path fill="#cecece" d="M 22.074219 25.496094 C 22.03125 25.496094 21.996094 25.460938 21.996094 25.417969 L 21.996094 24.957031 C 21.996094 24.914062 22.03125 24.878906 22.074219 24.878906 C 22.121094 24.878906 22.15625 24.914062 22.15625 24.957031 L 22.15625 25.417969 C 22.15625 25.460938 22.121094 25.496094 22.074219 25.496094 Z M 22.074219 25.496094 " fill-opacity="1" fill-rule="nonzero"/><path fill="#cecece" d="M 22.308594 25.265625 L 21.84375 25.265625 C 21.800781 25.265625 21.765625 25.230469 21.765625 25.1875 C 21.765625 25.144531 21.800781 25.109375 21.84375 25.109375 L 22.308594 25.109375 C 22.351562 25.109375 22.386719 25.144531 22.386719 25.1875 C 22.386719 25.230469 22.351562 25.265625 22.308594 25.265625 Z M 22.308594 25.265625 " fill-opacity="1" fill-rule="nonzero"/><path fill="#cecece" d="M 19.988281 25.265625 L 19.523438 25.265625 C 19.480469 25.265625 19.441406 25.230469 19.441406 25.1875 C 19.441406 25.144531 19.480469 25.109375 19.523438 25.109375 L 19.988281 25.109375 C 20.03125 25.109375 20.066406 25.144531 20.066406 25.1875 C 20.066406 25.230469 20.03125 25.265625 19.988281 25.265625 Z M 19.988281 25.265625 " fill-opacity="1" fill-rule="nonzero"/><path fill="#b4b1b6" d="M 21.113281 25.492188 L 20.722656 25.492188 L 20.722656 25.410156 L 20.863281 25.269531 C 20.902344 25.230469 20.929688 25.199219 20.945312 25.183594 C 20.957031 25.167969 20.964844 25.152344 20.972656 25.136719 C 20.976562 25.125 20.980469 25.109375 20.980469 25.09375 C 20.980469 25.074219 20.972656 25.058594 20.960938 25.046875 C 20.949219 25.035156 20.933594 25.03125 20.910156 25.03125 C 20.890625 25.03125 20.867188 25.035156 20.847656 25.042969 C 20.828125 25.054688 20.808594 25.070312 20.785156 25.085938 L 20.71875 25.011719 C 20.75 24.988281 20.769531 24.972656 20.789062 24.960938 C 20.808594 24.953125 20.828125 24.945312 20.847656 24.941406 C 20.871094 24.933594 20.894531 24.933594 20.921875 24.933594 C 20.953125 24.933594 20.984375 24.9375 21.011719 24.953125 C 21.039062 24.964844 21.058594 24.980469 21.074219 25.003906 C 21.089844 25.027344 21.097656 25.054688 21.097656 25.082031 C 21.097656 25.109375 21.09375 25.132812 21.082031 25.152344 C 21.074219 25.175781 21.058594 25.199219 21.042969 25.222656 C 21.023438 25.246094 20.988281 25.277344 20.941406 25.320312 L 20.871094 25.390625 L 20.871094 25.394531 L 21.113281 25.394531 Z M 21.113281 25.492188 " fill-opacity="1" fill-rule="nonzero"/><path fill="#cecece" d="M 20.089844 17.789062 C 20.074219 17.789062 20.058594 17.789062 20.046875 17.789062 C 19.925781 17.796875 19.816406 17.839844 19.730469 17.910156 C 19.59375 18.015625 19.507812 18.179688 19.507812 18.359375 C 19.507812 18.8125 20.089844 19.28125 20.089844 19.28125 C 20.089844 19.28125 20.390625 19.035156 20.558594 18.730469 C 20.617188 18.625 20.65625 18.511719 20.667969 18.402344 C 20.667969 18.386719 20.667969 18.375 20.667969 18.359375 C 20.667969 18.042969 20.410156 17.789062 20.089844 17.789062 Z M 20.089844 18.667969 C 19.914062 18.667969 19.773438 18.527344 19.773438 18.355469 C 19.773438 18.246094 19.828125 18.152344 19.914062 18.09375 C 19.964844 18.0625 20.023438 18.042969 20.089844 18.042969 C 20.261719 18.042969 20.40625 18.183594 20.40625 18.355469 C 20.40625 18.417969 20.386719 18.476562 20.351562 18.527344 C 20.296875 18.613281 20.199219 18.667969 20.089844 18.667969 Z M 20.089844 18.667969 " fill-opacity="1" fill-rule="nonzero"/><path fill="#eaeaea" d="M 21.386719 17.789062 L 29.324219 17.789062 C 29.402344 17.789062 29.46875 17.8125 29.523438 17.867188 C 29.578125 17.921875 29.605469 17.988281 29.605469 18.0625 L 29.605469 19.746094 C 29.605469 19.824219 29.578125 19.886719 29.523438 19.941406 C 29.46875 19.996094 29.402344 20.023438 29.324219 20.023438 L 21.386719 20.023438 C 21.308594 20.023438 21.242188 19.996094 21.1875 19.941406 C 21.132812 19.886719 21.105469 19.824219 21.105469 19.746094 L 21.105469 18.0625 C 21.105469 17.988281 21.132812 17.921875 21.1875 17.867188 C 21.242188 17.8125 21.308594 17.789062 21.386719 17.789062 Z M 21.386719 17.789062 " fill-opacity="1" fill-rule="nonzero"/><path fill="#eaeaea" d="M 21.386719 20.820312 L 29.324219 20.820312 C 29.402344 20.820312 29.46875 20.847656 29.523438 20.902344 C 29.578125 20.953125 29.605469 21.019531 29.605469 21.097656 L 29.605469 22.777344 C 29.605469 22.855469 29.578125 22.921875 29.523438 22.972656 C 29.46875 23.027344 29.402344 23.054688 29.324219 23.054688 L 21.386719 23.054688 C 21.308594 23.054688 21.242188 23.027344 21.1875 22.972656 C 21.132812 22.921875 21.105469 22.855469 21.105469 22.777344 L 21.105469 21.097656 C 21.105469 21.019531 21.132812 20.953125 21.1875 20.902344 C 21.242188 20.847656 21.308594 20.820312 21.386719 20.820312 Z M 21.386719 20.820312 " fill-opacity="1" fill-rule="nonzero"/><path fill="#cecece" d="M 20.667969 21.390625 C 20.667969 21.691406 20.4375 21.9375 20.140625 21.960938 L 20.140625 22.261719 C 20.140625 22.289062 20.117188 22.3125 20.089844 22.3125 C 20.074219 22.3125 20.0625 22.304688 20.050781 22.296875 C 20.042969 22.289062 20.039062 22.273438 20.039062 22.261719 L 20.039062 21.960938 C 19.742188 21.9375 19.507812 21.691406 19.507812 21.390625 C 19.507812 21.074219 19.769531 20.820312 20.089844 20.820312 C 20.410156 20.820312 20.667969 21.074219 20.667969 21.390625 Z M 20.667969 21.390625 " fill-opacity="1" fill-rule="nonzero"/><path fill="#ff946d" d="M 16.9375 7.847656 C 15.871094 7.847656 15.007812 8.699219 15.007812 9.753906 C 15.007812 11.257812 16.9375 12.816406 16.9375 12.816406 L 17.457031 12.816406 L 17.457031 12.335938 C 18.027344 11.753906 18.867188 10.734375 18.867188 9.753906 C 18.867188 8.699219 18.003906 7.847656 16.9375 7.847656 Z M 16.9375 10.78125 C 16.355469 10.78125 15.882812 10.316406 15.882812 9.742188 C 15.882812 9.164062 16.355469 8.699219 16.9375 8.699219 C 17.519531 8.699219 17.992188 9.164062 17.992188 9.742188 C 17.992188 10.316406 17.519531 10.78125 16.9375 10.78125 Z M 16.9375 10.78125 " fill-opacity="1" fill-rule="nonzero"/><path fill="#ffc931" d="M 17.457031 7.847656 C 17.40625 7.847656 17.359375 7.847656 17.3125 7.851562 C 16.914062 7.878906 16.550781 8.027344 16.257812 8.257812 C 15.808594 8.609375 15.523438 9.148438 15.523438 9.753906 C 15.523438 11.257812 17.457031 12.816406 17.457031 12.816406 C 17.457031 12.816406 18.457031 12 19.015625 10.984375 C 19.210938 10.636719 19.351562 10.261719 19.378906 9.894531 C 19.382812 9.847656 19.386719 9.800781 19.386719 9.753906 C 19.386719 8.699219 18.523438 7.847656 17.457031 7.847656 Z M 17.457031 10.78125 C 16.875 10.78125 16.402344 10.316406 16.402344 9.742188 C 16.402344 9.378906 16.589844 9.058594 16.875 8.871094 C 17.042969 8.761719 17.242188 8.699219 17.457031 8.699219 C 18.035156 8.699219 18.507812 9.167969 18.507812 9.742188 C 18.507812 9.953125 18.445312 10.148438 18.335938 10.3125 C 18.148438 10.59375 17.824219 10.78125 17.457031 10.78125 Z M 17.457031 10.78125 " fill-opacity="1" fill-rule="nonzero"/><path fill="#ffda7d" d="M 19.378906 9.894531 C 19.351562 10.261719 19.210938 10.636719 19.015625 10.984375 L 18.335938 10.3125 C 18.445312 10.148438 18.507812 9.953125 18.507812 9.742188 C 18.507812 9.167969 18.035156 8.699219 17.457031 8.699219 C 17.242188 8.699219 17.042969 8.761719 16.875 8.871094 L 16.257812 8.257812 C 16.550781 8.027344 16.914062 7.878906 17.3125 7.851562 Z M 19.378906 9.894531 " fill-opacity="1" fill-rule="nonzero"/><path fill="#efac8f" d="M 16.621094 21.90625 L 15.707031 24.34375 C 15.257812 24.21875 14.851562 23.847656 14.539062 23.476562 C 14.164062 23.03125 13.933594 22.585938 13.933594 22.585938 C 14.085938 22.203125 15.179688 21.496094 15.792969 21.121094 C 16.042969 20.96875 16.214844 20.871094 16.214844 20.871094 Z M 16.621094 21.90625 " fill-opacity="1" fill-rule="nonzero"/><path fill="#e08369" d="M 15.707031 21.496094 C 15.707031 21.496094 14.890625 22.214844 14.539062 23.476562 C 14.164062 23.03125 13.933594 22.585938 13.933594 22.585938 C 14.085938 22.203125 15.179688 21.496094 15.792969 21.121094 C 15.800781 21.234375 15.777344 21.359375 15.707031 21.496094 Z M 15.707031 21.496094 " fill-opacity="1" fill-rule="nonzero"/><path fill="#ef6674" d="M 16.480469 21.023438 L 13.496094 22.855469 L 13.328125 26.898438 C 12.355469 27.011719 11.382812 27.171875 10.429688 27.386719 C 7.074219 28.152344 4.46875 28.019531 2.714844 27.167969 L 2.945312 20.027344 L 3.347656 15.1875 L 3.421875 14.320312 L 4.15625 14.035156 L 7.5625 12.710938 L 8.136719 12.488281 L 11.222656 13.125 C 11.222656 13.125 11.46875 13.230469 11.835938 13.386719 C 12.582031 13.707031 13.832031 14.25 14.550781 14.597656 C 15.625 15.117188 15.707031 15.972656 15.707031 15.972656 Z M 16.480469 21.023438 " fill-opacity="1" fill-rule="nonzero"/><path fill="#a04061" d="M 11.726562 13.339844 C 11.675781 13.792969 11.777344 14.289062 10.652344 14.320312 C 9.085938 14.363281 7.875 13.226562 7.5625 12.710938 L 8.136719 12.488281 L 11.222656 13.125 C 11.222656 13.125 11.359375 13.183594 11.726562 13.339844 Z M 11.726562 13.339844 " fill-opacity="1" fill-rule="nonzero"/><path fill="#ffb26d" d="M 13.980469 18.300781 L 13.683594 21.085938 C 12.3125 21.085938 6.96875 21.0625 4.375 20.773438 L 4.101562 18.09375 C 4.101562 18.09375 11.101562 18.296875 13.980469 18.300781 Z M 13.980469 18.300781 " fill-opacity="1" fill-rule="nonzero"/><path fill="#a04061" d="M 13.496094 22.933594 C 13.496094 22.933594 13.492188 22.933594 13.488281 22.933594 C 13.445312 22.925781 13.414062 22.890625 13.417969 22.847656 L 13.605469 21.078125 L 13.933594 17.980469 C 13.9375 17.9375 13.976562 17.90625 14.019531 17.910156 C 14.0625 17.914062 14.09375 17.953125 14.089844 17.996094 L 13.574219 22.863281 C 13.570312 22.902344 13.535156 22.933594 13.496094 22.933594 Z M 13.496094 22.933594 " fill-opacity="1" fill-rule="nonzero"/><path fill="#a04061" d="M 13.753906 22.113281 C 13.726562 22.113281 13.703125 22.097656 13.6875 22.074219 C 13.664062 22.039062 13.675781 21.992188 13.714844 21.96875 C 13.726562 21.960938 15.039062 21.164062 16.019531 20.636719 C 16.058594 20.613281 16.105469 20.628906 16.125 20.664062 C 16.148438 20.703125 16.132812 20.75 16.09375 20.773438 C 15.117188 21.300781 13.808594 22.09375 13.796875 22.101562 C 13.78125 22.109375 13.769531 22.113281 13.753906 22.113281 Z M 13.753906 22.113281 " fill-opacity="1" fill-rule="nonzero"/><path fill="#efac8f" d="M 15.117188 22.855469 C 15.117188 22.855469 15.867188 20.644531 16.40625 19.339844 C 16.945312 18.035156 17.535156 16.328125 17.535156 16.328125 C 17.535156 16.328125 17.140625 15.871094 17.1875 15.332031 C 17.234375 14.796875 17.441406 14.40625 17.441406 14.40625 C 17.441406 14.40625 17.324219 14.4375 17.246094 14.167969 C 17.203125 14.035156 17.15625 13.847656 17.492188 13.695312 C 17.828125 13.546875 18.996094 13.285156 19.304688 13.351562 C 19.613281 13.414062 19.808594 13.769531 19.910156 14.019531 C 20.011719 14.269531 19.164062 16.328125 19.164062 16.328125 C 19.164062 16.328125 18.308594 22.199219 17.925781 23.222656 C 17.328125 24.824219 15.707031 24.34375 15.707031 24.34375 Z M 15.117188 22.855469 " fill-opacity="1" fill-rule="nonzero"/><path fill="#a04061" d="M 9.207031 26.863281 C 9.207031 26.863281 9.203125 26.863281 9.203125 26.863281 C 7.925781 26.789062 6.90625 26.371094 6.273438 26.027344 C 5.585938 25.660156 5.207031 25.308594 5.191406 25.296875 C 5.160156 25.265625 5.160156 25.21875 5.1875 25.1875 C 5.21875 25.15625 5.269531 25.152344 5.300781 25.183594 C 5.304688 25.1875 5.683594 25.535156 6.351562 25.894531 C 6.96875 26.226562 7.964844 26.636719 9.210938 26.707031 C 9.253906 26.710938 9.289062 26.746094 9.285156 26.789062 C 9.28125 26.832031 9.25 26.863281 9.207031 26.863281 Z M 9.207031 26.863281 " fill-opacity="1" fill-rule="nonzero"/><path fill="#e08369" d="M 18.125 14.398438 C 18.117188 14.398438 18.109375 14.398438 18.101562 14.398438 C 18.058594 14.398438 18.023438 14.363281 18.023438 14.320312 C 18.023438 14.277344 18.058594 14.246094 18.101562 14.246094 L 18.105469 14.246094 C 18.871094 14.25 19.496094 13.953125 19.5 13.949219 C 19.539062 13.929688 19.585938 13.945312 19.605469 13.984375 C 19.625 14.023438 19.609375 14.070312 19.570312 14.089844 C 19.542969 14.101562 18.917969 14.398438 18.125 14.398438 Z M 18.125 14.398438 " fill-opacity="1" fill-rule="nonzero"/><path fill="#efac8f" d="M 8.757812 10.613281 L 8.0625 12.710938 C 8.0625 12.710938 10.269531 14.671875 11.292969 13.574219 L 11.355469 12.054688 Z M 8.757812 10.613281 " fill-opacity="1" fill-rule="nonzero"/><path fill="#e08369" d="M 8.757812 10.613281 L 8.632812 10.984375 C 9.507812 12.953125 10.40625 13.507812 11.320312 12.878906 L 11.355469 12.054688 Z M 8.757812 10.613281 " fill-opacity="1" fill-rule="nonzero"/><path fill="#efac8f" d="M 14.003906 8.824219 C 14.003906 8.824219 13.078125 12.640625 11.382812 12.640625 C 9.6875 12.640625 8.515625 10.5625 8.515625 10.5625 C 8.515625 10.5625 8.058594 10.734375 7.816406 9.734375 C 7.613281 8.894531 8.742188 8.660156 8.902344 9.21875 L 9.488281 7.570312 L 14.011719 8.054688 Z M 14.003906 8.824219 " fill-opacity="1" fill-rule="nonzero"/><path fill="#ffffff" d="M 10.496094 10.71875 C 10.496094 10.71875 11.109375 11.152344 12.136719 11.222656 C 12.136719 11.222656 11.894531 12.109375 11.214844 11.839844 C 10.53125 11.570312 10.496094 10.71875 10.496094 10.71875 Z M 10.496094 10.71875 " fill-opacity="1" fill-rule="nonzero"/><path fill="#354d6e" d="M 10.25 8.074219 C 10.25 8.074219 10.054688 8.792969 9.566406 9.097656 C 9.566406 9.097656 9.183594 9.675781 9.136719 10.257812 C 9.136719 10.257812 8.859375 9.625 8.835938 9.082031 C 8.835938 9.082031 8.621094 8.839844 8.320312 8.917969 L 8.261719 7.398438 C 8.261719 7.398438 8.222656 6.34375 9.269531 6.34375 C 9.269531 6.34375 10.351562 5.117188 12.621094 5.28125 L 12.511719 5.570312 C 12.511719 5.570312 14 5.839844 15.269531 6.703125 L 14.71875 6.882812 C 14.71875 6.882812 15.261719 7.753906 15.144531 8.738281 L 14.609375 8.28125 C 14.609375 8.28125 14.554688 9.527344 14.195312 10.195312 L 13.902344 9.398438 L 13.535156 9.710938 C 13.632812 9.1875 13.59375 8.675781 13.390625 8.183594 C 13.390625 8.183594 12.984375 9.207031 11.707031 9.410156 L 11.878906 8.941406 L 10.746094 9.339844 C 10.746094 9.339844 11.210938 8.472656 11.34375 7.964844 C 11.34375 7.964844 11.007812 8.957031 9.855469 9.421875 C 9.855469 9.421875 10.148438 8.742188 10.25 8.074219 Z M 10.25 8.074219 " fill-opacity="1" fill-rule="nonzero"/><path fill="#354d6e" d="M 14.410156 15.316406 L 15.566406 13.148438 C 15.613281 13.070312 15.695312 13.019531 15.789062 13.019531 L 18.140625 13.019531 C 18.246094 13.019531 18.3125 13.132812 18.261719 13.222656 L 16.976562 15.554688 L 15.277344 15.929688 Z M 14.410156 15.316406 " fill-opacity="1" fill-rule="nonzero"/><path fill="#ef6674" d="M 3.421875 14.320312 C 3.421875 14.320312 1.804688 14.996094 1.59375 16.417969 C 1.386719 17.84375 3.953125 22.609375 3.953125 22.609375 L 4.902344 22.148438 L 7.167969 20.078125 L 5.851562 16.746094 Z M 3.421875 14.320312 " fill-opacity="1" fill-rule="nonzero"/><path fill="#a04061" d="M 7.167969 20.15625 C 7.136719 20.15625 7.109375 20.136719 7.097656 20.105469 L 5.84375 16.941406 C 5.828125 16.902344 5.847656 16.855469 5.886719 16.839844 C 5.929688 16.824219 5.972656 16.84375 5.988281 16.886719 L 7.242188 20.046875 C 7.257812 20.089844 7.238281 20.132812 7.199219 20.148438 C 7.1875 20.152344 7.179688 20.15625 7.167969 20.15625 Z M 7.167969 20.15625 " fill-opacity="1" fill-rule="nonzero"/><path fill="#a04061" d="M 4.101562 21.976562 C 4.078125 21.976562 4.054688 21.964844 4.042969 21.945312 C 4.011719 21.914062 4.019531 21.863281 4.050781 21.835938 C 4.066406 21.828125 5.292969 20.84375 6.695312 20.011719 C 6.730469 19.988281 6.78125 20 6.804688 20.035156 C 6.824219 20.074219 6.8125 20.121094 6.777344 20.144531 C 5.386719 20.972656 4.164062 21.949219 4.152344 21.957031 C 4.136719 21.96875 4.121094 21.976562 4.101562 21.976562 Z M 4.101562 21.976562 " fill-opacity="1" fill-rule="nonzero"/><path fill="#efac8f" d="M 17.242188 15.65625 C 17.242188 15.65625 17.488281 16.15625 16.984375 16.492188 C 16.984375 16.492188 16.796875 16.988281 16.40625 17.175781 C 16.40625 17.175781 16.425781 17.46875 15.699219 17.695312 L 13.558594 17.785156 L 8.28125 23.160156 C 8.28125 23.160156 6.992188 24.445312 5.332031 23.015625 C 5.089844 22.808594 4.84375 22.546875 4.59375 22.214844 L 6.84375 20.296875 L 12.707031 16.328125 L 13.242188 15.527344 C 13.242188 15.527344 13.835938 14.792969 14.675781 14.824219 L 14.410156 15.316406 C 14.410156 15.316406 16.132812 15.90625 17.257812 15.035156 C 17.257812 15.035156 17.511719 15.390625 17.242188 15.65625 Z M 17.242188 15.65625 " fill-opacity="1" fill-rule="nonzero"/><path fill="#eb8c6c" d="M 4.59375 22.214844 L 6.84375 20.296875 C 6.800781 20.34375 5.550781 21.695312 5.332031 23.015625 C 5.089844 22.808594 4.84375 22.546875 4.59375 22.214844 Z M 4.59375 22.214844 " fill-opacity="1" fill-rule="nonzero"/><path fill="#e08369" d="M 16.144531 16.132812 C 16.101562 16.132812 16.070312 16.101562 16.066406 16.058594 C 16.0625 16.015625 16.09375 15.980469 16.140625 15.976562 C 16.902344 15.925781 17.179688 15.609375 17.183594 15.605469 C 17.210938 15.570312 17.261719 15.566406 17.292969 15.59375 C 17.328125 15.621094 17.332031 15.671875 17.304688 15.703125 C 17.292969 15.71875 16.988281 16.074219 16.148438 16.132812 C 16.148438 16.132812 16.144531 16.132812 16.144531 16.132812 Z M 16.144531 16.132812 " fill-opacity="1" fill-rule="nonzero"/><path fill="#e08369" d="M 15.976562 16.824219 C 15.933594 16.824219 15.898438 16.789062 15.898438 16.746094 C 15.898438 16.703125 15.933594 16.667969 15.976562 16.667969 C 16.457031 16.667969 16.941406 16.425781 16.945312 16.421875 C 16.984375 16.402344 17.03125 16.417969 17.054688 16.457031 C 17.074219 16.496094 17.058594 16.542969 17.019531 16.5625 C 16.996094 16.570312 16.496094 16.824219 15.976562 16.824219 Z M 15.976562 16.824219 " fill-opacity="1" fill-rule="nonzero"/><path fill="#e08369" d="M 15.707031 17.421875 C 15.667969 17.421875 15.632812 17.386719 15.628906 17.347656 C 15.628906 17.304688 15.664062 17.265625 15.707031 17.265625 C 16.125 17.253906 16.359375 17.113281 16.363281 17.109375 C 16.402344 17.085938 16.449219 17.097656 16.472656 17.136719 C 16.496094 17.171875 16.484375 17.21875 16.445312 17.242188 C 16.4375 17.25 16.175781 17.40625 15.710938 17.421875 C 15.710938 17.421875 15.710938 17.421875 15.707031 17.421875 Z M 15.707031 17.421875 " fill-opacity="1" fill-rule="nonzero"/><path fill="#e08369" d="M 6.929688 23.769531 C 6.472656 23.769531 5.898438 23.609375 5.277344 23.074219 C 5.246094 23.046875 5.242188 22.996094 5.269531 22.964844 C 5.300781 22.933594 5.351562 22.929688 5.382812 22.957031 C 6.050781 23.53125 6.730469 23.730469 7.410156 23.546875 C 7.910156 23.414062 8.222656 23.105469 8.226562 23.105469 L 13.5 17.734375 C 13.515625 17.71875 13.535156 17.710938 13.554688 17.707031 L 15.695312 17.617188 C 15.738281 17.617188 15.777344 17.648438 15.777344 17.691406 C 15.78125 17.734375 15.746094 17.773438 15.703125 17.773438 L 13.59375 17.863281 L 8.335938 23.210938 C 8.324219 23.226562 7.992188 23.550781 7.449219 23.699219 C 7.300781 23.738281 7.125 23.769531 6.929688 23.769531 Z M 6.929688 23.769531 " fill-opacity="1" fill-rule="nonzero"/><path fill="#ffffff" d="M 16.058594 13.363281 C 16.113281 13.429688 16.085938 13.507812 15.976562 13.59375 C 15.867188 13.679688 15.78125 13.6875 15.726562 13.621094 C 15.671875 13.550781 15.699219 13.472656 15.8125 13.386719 C 15.921875 13.300781 16.003906 13.292969 16.058594 13.363281 Z M 16.058594 13.363281 " fill-opacity="1" fill-rule="nonzero"/><path fill="#01cc8e" d="M 36.183594 21.65625 C 36.183594 22.054688 36.105469 22.4375 35.949219 22.804688 C 35.796875 23.171875 35.578125 23.496094 35.292969 23.777344 C 35.007812 24.058594 34.679688 24.277344 34.304688 24.429688 C 33.933594 24.582031 33.546875 24.65625 33.140625 24.65625 C 32.738281 24.65625 32.351562 24.582031 31.980469 24.429688 C 31.605469 24.277344 31.277344 24.058594 30.992188 23.777344 C 30.707031 23.496094 30.488281 23.171875 30.335938 22.804688 C 30.179688 22.4375 30.101562 22.054688 30.101562 21.65625 C 30.101562 21.257812 30.179688 20.875 30.335938 20.507812 C 30.488281 20.140625 30.707031 19.816406 30.992188 19.535156 C 31.277344 19.253906 31.605469 19.035156 31.980469 18.882812 C 32.351562 18.730469 32.738281 18.65625 33.140625 18.65625 C 33.546875 18.65625 33.933594 18.730469 34.304688 18.882812 C 34.679688 19.035156 35.007812 19.253906 35.292969 19.535156 C 35.578125 19.816406 35.796875 20.140625 35.949219 20.507812 C 36.105469 20.875 36.183594 21.257812 36.183594 21.65625 Z M 36.183594 21.65625 " fill-opacity="1" fill-rule="nonzero"/><path fill="#7fe192" d="M 35.515625 21.65625 C 35.515625 21.851562 35.496094 22.046875 35.457031 22.230469 C 35.363281 22.714844 35.152344 23.152344 34.855469 23.523438 C 34.296875 24.214844 33.4375 24.65625 32.476562 24.65625 C 30.796875 24.65625 29.433594 23.3125 29.433594 21.65625 C 29.433594 20.703125 29.882812 19.855469 30.585938 19.304688 C 30.957031 19.011719 31.40625 18.804688 31.890625 18.710938 C 32.082031 18.675781 32.277344 18.65625 32.476562 18.65625 C 34.152344 18.65625 35.515625 20 35.515625 21.65625 Z M 35.515625 21.65625 " fill-opacity="1" fill-rule="nonzero"/><path fill="#95f9a6" d="M 35.457031 22.230469 C 35.363281 22.714844 35.152344 23.152344 34.855469 23.523438 L 30.585938 19.304688 C 30.957031 19.011719 31.40625 18.804688 31.890625 18.710938 Z M 35.457031 22.230469 " fill-opacity="1" fill-rule="nonzero"/><path fill="#ace6fe" d="M 32.144531 23.460938 C 32.027344 23.460938 31.917969 23.410156 31.84375 23.320312 L 30.773438 22.042969 C 30.632812 21.875 30.65625 21.628906 30.824219 21.492188 C 30.992188 21.355469 31.242188 21.378906 31.378906 21.546875 L 32.148438 22.464844 L 33.816406 20.496094 C 33.957031 20.332031 34.207031 20.308594 34.371094 20.445312 C 34.539062 20.585938 34.5625 20.828125 34.421875 20.996094 L 32.449219 23.324219 C 32.375 23.410156 32.261719 23.460938 32.144531 23.460938 Z M 32.144531 23.460938 " fill-opacity="1" fill-rule="nonzero"/><path fill="#ffffff" d="M 31.902344 23.460938 L 31.898438 23.460938 C 31.78125 23.460938 31.671875 23.410156 31.597656 23.320312 L 30.527344 22.042969 C 30.386719 21.875 30.410156 21.628906 30.578125 21.492188 C 30.746094 21.355469 30.996094 21.378906 31.132812 21.546875 L 31.902344 22.464844 L 33.570312 20.496094 C 33.710938 20.332031 33.960938 20.308594 34.125 20.445312 C 34.292969 20.585938 34.316406 20.828125 34.175781 20.996094 L 32.203125 23.324219 C 32.128906 23.410156 32.015625 23.460938 31.902344 23.460938 Z M 31.902344 23.460938 " fill-opacity="1" fill-rule="nonzero"/></svg>