<svg xmlns="http://www.w3.org/2000/svg" xmlns:xlink="http://www.w3.org/1999/xlink" width="40" zoomAndPan="magnify" viewBox="0 0 30 30.000001" height="40" preserveAspectRatio="xMidYMid meet" version="1.0"><defs><clipPath id="4811324de3"><path d="M 3.914062 14 L 26.414062 14 L 26.414062 29 L 3.914062 29 Z M 3.914062 14 " clip-rule="nonzero"/></clipPath><clipPath id="c4f2b36973"><path d="M 15 17 L 26.414062 17 L 26.414062 29 L 15 29 Z M 15 17 " clip-rule="nonzero"/></clipPath><clipPath id="5f77d7b18a"><path d="M 3.914062 14 L 12 14 L 12 23 L 3.914062 23 Z M 3.914062 14 " clip-rule="nonzero"/></clipPath><clipPath id="6d82265802"><path d="M 23 17 L 26.414062 17 L 26.414062 25 L 23 25 Z M 23 17 " clip-rule="nonzero"/></clipPath><clipPath id="9f37b411dc"><path d="M 15 24 L 26.414062 24 L 26.414062 29 L 15 29 Z M 15 24 " clip-rule="nonzero"/></clipPath></defs><g clip-path="url(#4811324de3)"><path fill="#ffffff" d="M 15.992188 14.394531 C 16.085938 14.433594 16.175781 14.472656 16.257812 14.507812 C 16.324219 14.539062 16.386719 14.566406 16.449219 14.59375 C 16.75 14.734375 17 14.859375 17.230469 14.972656 L 17.253906 14.984375 C 17.855469 15.285156 18.355469 15.523438 19.4375 15.796875 C 20.242188 16 21.191406 16.214844 21.785156 16.785156 C 21.804688 16.789062 21.824219 16.792969 21.84375 16.796875 C 22.636719 16.949219 22.96875 17.28125 23.042969 17.765625 L 23.046875 17.773438 C 23.074219 17.804688 23.101562 17.835938 23.125 17.867188 C 23.179688 17.929688 23.230469 17.988281 23.28125 18.050781 C 24.753906 19.828125 24.707031 20.980469 25.382812 22.753906 C 25.457031 22.945312 25.539062 23.144531 25.632812 23.351562 L 26.402344 24.957031 L 26.402344 24.949219 L 26.402344 24.960938 C 26.285156 25.585938 26.132812 26.105469 25.949219 26.539062 C 25.046875 28.648438 23.300781 28.722656 20.363281 28.890625 C 18.460938 29 17.96875 28.847656 16.800781 28.484375 L 16.761719 28.519531 C 16.734375 28.542969 16.703125 28.570312 16.667969 28.597656 C 16.691406 28.546875 16.710938 28.503906 16.730469 28.460938 C 16.425781 28.367188 16.074219 28.261719 15.644531 28.140625 C 14.070312 28.554688 12.597656 28.453125 10.140625 28.707031 L 10.109375 28.710938 C 10.121094 28.710938 10.132812 28.710938 10.148438 28.710938 L 10.089844 28.714844 L 10.066406 28.714844 L 10.039062 28.71875 L 10.03125 28.71875 L 10.035156 28.71875 L 10.050781 28.714844 L 9.976562 28.71875 L 9.859375 28.722656 C 8.140625 28.652344 5.929688 25.515625 4.871094 23.699219 C 4.714844 23.433594 4.585938 23.195312 4.484375 23 L 4.488281 23.003906 L 4.480469 22.992188 C 4.457031 22.988281 4.4375 22.972656 4.417969 22.953125 L 4.414062 22.949219 C 4.316406 22.847656 4.234375 22.589844 4.171875 22.269531 C 4.148438 22.15625 4.125 22.035156 4.109375 21.910156 C 3.988281 21.125 3.9375 20.191406 3.9375 20.152344 C 3.925781 18.023438 5.132812 16.59375 7.1875 15.925781 C 8.601562 15.46875 7.546875 16.042969 9.003906 15.214844 C 9.453125 14.957031 9.917969 14.734375 10.386719 14.523438 L 10.375 14.515625 L 10.359375 14.503906 C 10.347656 14.496094 10.335938 14.488281 10.328125 14.484375 C 10.316406 14.480469 10.308594 14.476562 10.296875 14.472656 C 10.304688 14.476562 10.308594 14.476562 10.316406 14.480469 C 10.324219 14.484375 10.335938 14.492188 10.347656 14.5 C 10.355469 14.503906 10.367188 14.507812 10.375 14.515625 L 10.386719 14.523438 L 10.390625 14.519531 L 10.414062 14.507812 C 10.738281 14.363281 11.066406 14.226562 11.398438 14.085938 L 11.402344 14.085938 L 11.417969 14.078125 L 11.484375 14.050781 C 11.140625 14.210938 10.804688 14.371094 10.46875 14.535156 L 10.449219 14.546875 L 10.445312 14.546875 L 10.441406 14.550781 L 10.433594 14.554688 C 10.457031 14.570312 10.480469 14.585938 10.507812 14.605469 C 10.609375 14.675781 10.738281 14.769531 10.878906 14.871094 C 11.367188 15.226562 12.015625 15.707031 12.277344 15.839844 C 12.738281 16.070312 13.75 16.410156 14.515625 16.601562 C 14.546875 16.597656 14.574219 16.59375 14.605469 16.589844 C 14.667969 16.582031 14.730469 16.570312 14.792969 16.5625 L 14.796875 16.5625 C 15.714844 16.402344 16.402344 16.066406 17.15625 15.0625 C 16.792969 14.84375 16.421875 14.617188 15.992188 14.394531 " fill-opacity="1" fill-rule="evenodd"/></g><g clip-path="url(#c4f2b36973)"><path fill="#e5e5e5" d="M 23.101562 17.839844 L 23.125 17.867188 C 23.179688 17.929688 23.230469 17.988281 23.28125 18.050781 C 24.753906 19.828125 24.707031 20.980469 25.382812 22.753906 C 25.457031 22.945312 25.539062 23.144531 25.632812 23.351562 L 26.402344 24.957031 L 26.402344 24.949219 L 26.402344 24.960938 C 26.285156 25.585938 26.132812 26.105469 25.949219 26.539062 C 25.046875 28.648438 23.300781 28.722656 20.363281 28.890625 C 18.460938 29 17.96875 28.847656 16.800781 28.484375 L 16.761719 28.519531 C 16.734375 28.542969 16.703125 28.570312 16.667969 28.597656 C 16.691406 28.546875 16.710938 28.503906 16.730469 28.460938 C 16.425781 28.367188 16.074219 28.261719 15.644531 28.140625 L 15.589844 28.15625 L 15.339844 27.96875 L 17.957031 26.65625 C 17.957031 26.65625 20.550781 27.289062 21.980469 27.355469 C 23.410156 27.421875 25.960938 25.46875 25.644531 24.789062 C 25.332031 24.113281 23.875 23.476562 23.875 23.476562 C 23.875 23.476562 23.046875 21.375 22.824219 20.078125 C 22.726562 19.488281 22.902344 18.535156 23.101562 17.839844 " fill-opacity="1" fill-rule="evenodd"/></g><path fill="#ffd9a8" d="M 21.839844 23.359375 C 21.839844 23.359375 21.195312 22.550781 20.796875 22.34375 C 20.394531 22.136719 20.503906 22.0625 19.964844 22.085938 C 19.425781 22.113281 18.402344 22.371094 18.402344 22.371094 L 19.449219 24.761719 L 20.921875 23.933594 L 21.839844 23.359375 " fill-opacity="1" fill-rule="evenodd"/><path fill="#e5e5e5" d="M 20.816406 17.964844 C 20.816406 17.964844 20.238281 20.105469 19.554688 21.074219 C 18.875 22.039062 18.449219 22.363281 18.449219 22.363281 C 19.578125 22.109375 20.007812 21.820312 21.265625 22.839844 C 21.265625 22.839844 20.535156 21.648438 20.554688 20.734375 C 20.578125 19.824219 20.816406 17.964844 20.816406 17.964844 " fill-opacity="1" fill-rule="evenodd"/><path fill="#000000" d="M 15.992188 14.394531 C 17.46875 15.023438 17.734375 15.363281 19.433594 15.796875 C 20.546875 16.078125 21.9375 16.378906 22.285156 17.617188 C 21.824219 16.363281 20.480469 16.328125 19.394531 16.0625 C 17.992188 15.722656 17.214844 15.03125 15.992188 14.394531 " fill-opacity="1" fill-rule="evenodd"/><path fill="#e5e5e5" d="M 4.855469 23.679688 C 5.261719 23.8125 6.046875 24.1875 6.855469 25.246094 C 8.027344 26.777344 9.105469 28.1875 10.46875 27.933594 C 11.832031 27.679688 12.949219 26.417969 14.894531 26.457031 C 16.84375 26.496094 19.574219 26.148438 19.585938 25.582031 C 19.59375 25.019531 19.507812 26.199219 19.507812 26.199219 C 19.507812 26.199219 18.535156 27.570312 14.433594 28.246094 C 13.875 28.339844 13.367188 28.425781 12.910156 28.503906 C 12.117188 28.550781 11.226562 28.59375 10.140625 28.707031 L 10.109375 28.710938 C 10.121094 28.710938 10.132812 28.710938 10.148438 28.710938 L 10.089844 28.714844 L 10.066406 28.714844 L 10.039062 28.71875 L 10.03125 28.71875 L 10.035156 28.71875 L 10.050781 28.714844 L 9.976562 28.71875 L 9.859375 28.722656 C 8.140625 28.652344 5.929688 25.515625 4.871094 23.699219 L 4.855469 23.679688 " fill-opacity="1" fill-rule="evenodd"/><path fill="#e5e5e5" d="M 7.285156 17.300781 C 7.285156 17.300781 10.445312 18.179688 10.445312 20.328125 C 11.351562 21.390625 11.816406 22.035156 11.816406 22.035156 C 11.816406 22.035156 12.882812 21.945312 13.300781 22.097656 C 13.722656 22.25 12.355469 22.269531 12.046875 23.53125 C 11.742188 24.789062 11.339844 24.320312 11.339844 24.320312 C 11.339844 24.320312 11.371094 23.355469 12.113281 22.902344 C 12.859375 22.449219 10.453125 23.222656 9.773438 24.484375 C 9.09375 25.742188 8.910156 24.703125 9.46875 23.753906 C 10.03125 22.800781 10.691406 22.34375 10.691406 22.34375 C 10.691406 22.34375 9.171875 21.632812 9.558594 20.707031 C 9.886719 19.917969 8.757812 18.316406 7.285156 17.300781 " fill-opacity="1" fill-rule="evenodd"/><path fill="#e2c198" d="M 16.921875 12.804688 C 16.921875 12.804688 16.769531 13.773438 16.808594 14.078125 C 16.847656 14.382812 16.675781 14.207031 16.675781 14.207031 C 16.675781 14.207031 15.445312 14.953125 15.355469 16.429688 C 15.171875 16.882812 13.269531 16.351562 13.269531 16.351562 C 13.269531 16.351562 13.390625 14.390625 11.242188 13.652344 C 11.484375 13.015625 10.84375 10.957031 10.84375 10.957031 L 11.890625 10.34375 L 16.921875 12.804688 " fill-opacity="1" fill-rule="evenodd"/><g clip-path="url(#5f77d7b18a)"><path fill="#000000" d="M 11.484375 14.050781 C 10.652344 14.4375 9.839844 14.828125 9.0625 15.3125 C 7.652344 16.195312 8.597656 15.613281 7.253906 16.113281 C 5.84375 16.636719 4.40625 17.820312 4.132812 19.367188 C 4.054688 19.8125 4.046875 23.011719 4.511719 22.996094 C 4.085938 23.027344 3.9375 20.222656 3.9375 20.152344 C 3.921875 18.023438 5.132812 16.59375 7.1875 15.925781 C 8.601562 15.46875 7.546875 16.042969 9.003906 15.214844 C 9.804688 14.757812 10.632812 14.40625 11.484375 14.050781 " fill-opacity="1" fill-rule="evenodd"/></g><path fill="#980000" d="M 11.09375 13.613281 C 11.09375 13.613281 12.675781 14.179688 13.0625 15.167969 C 13.449219 16.152344 13.269531 16.351562 13.269531 16.351562 L 11.871094 15.738281 L 10.425781 14.558594 L 11.09375 13.613281 " fill-opacity="1" fill-rule="evenodd"/><path fill="#980000" d="M 15.339844 16.5 C 15.339844 16.5 15.601562 14.757812 16.769531 14.1875 C 17.0625 14.394531 17.171875 15.011719 17.171875 15.011719 C 17.171875 15.011719 16.515625 16.199219 15.339844 16.5 " fill-opacity="1" fill-rule="evenodd"/><path fill="#000000" d="M 4.484375 23 C 5.292969 24.339844 6.59375 25.859375 7.621094 27.113281 C 8.320312 27.964844 9 28.683594 10.144531 28.710938 L 9.855469 28.722656 C 7.890625 28.644531 5.273438 24.535156 4.484375 23 " fill-opacity="1" fill-rule="evenodd"/><path fill="#000000" d="M 10.03125 28.71875 C 13.863281 28.085938 15.757812 28.433594 19.199219 26.390625 C 19.292969 26.335938 19.28125 26.289062 19.367188 26.242188 C 19.285156 26.292969 19.300781 26.339844 19.203125 26.402344 C 15.554688 28.863281 14.195312 28.273438 10.03125 28.71875 " fill-opacity="1" fill-rule="evenodd"/><path fill="#000000" d="M 17.957031 21.933594 C 18.910156 22.425781 19.5625 24.273438 19.609375 25.199219 C 19.617188 25.34375 19.699219 26.128906 19.457031 26.234375 C 19.960938 25.949219 18.726562 22.453125 17.957031 21.933594 " fill-opacity="1" fill-rule="evenodd"/><path fill="#000000" d="M 9.328125 24.320312 C 9.777344 22.121094 10.613281 22.019531 12.789062 21.917969 C 10.820312 22.246094 9.960938 22.433594 9.328125 24.320312 " fill-opacity="1" fill-rule="evenodd"/><path fill="#000000" d="M 11.832031 23.488281 C 12.011719 22.886719 12.511719 21.679688 13.371094 21.917969 C 15.203125 22.425781 15.882812 22.601562 17.710938 21.867188 C 17.460938 21.992188 17.0625 22.207031 16.796875 22.289062 C 15.304688 22.765625 14.675781 22.601562 13.300781 22.097656 C 12.59375 21.835938 12.011719 23.03125 11.832031 23.488281 " fill-opacity="1" fill-rule="evenodd"/><path fill="#000000" d="M 6.445312 17.21875 C 8.214844 17.226562 10.234375 18.292969 10.566406 20.121094 C 10.765625 21.226562 11.046875 20.601562 11.648438 21.789062 C 11.6875 21.863281 11.734375 21.890625 11.742188 21.960938 C 11.730469 21.890625 11.679688 21.863281 11.636719 21.792969 C 10.9375 20.640625 10.703125 21.332031 10.394531 20.144531 C 9.960938 18.480469 8.082031 17.34375 6.445312 17.21875 " fill-opacity="1" fill-rule="evenodd"/><path fill="#000000" d="M 10.820312 20.832031 C 10.0625 20.898438 9.296875 20.757812 8.570312 20.867188 C 9.753906 20.371094 9.738281 20.660156 10.820312 20.832031 " fill-opacity="1" fill-rule="evenodd"/><g clip-path="url(#6d82265802)"><path fill="#000000" d="M 23.039062 17.765625 C 24.140625 19.011719 24.601562 20.089844 25.0625 21.691406 C 25.449219 23.101562 25.785156 23.667969 26.402344 24.957031 L 25.515625 23.410156 C 24.414062 21.351562 24.625 19.835938 23.039062 17.765625 " fill-opacity="1" fill-rule="evenodd"/></g><g clip-path="url(#9f37b411dc)"><path fill="#000000" d="M 26.402344 24.949219 C 25.71875 28.621094 23.90625 28.6875 20.359375 28.890625 C 17.867188 29.03125 17.796875 28.726562 15.441406 28.085938 C 17.800781 28.621094 17.882812 28.921875 20.339844 28.675781 C 23.871094 28.324219 25.546875 28.636719 26.402344 24.949219 " fill-opacity="1" fill-rule="evenodd"/></g><path fill="#000000" d="M 20.816406 17.964844 C 20.769531 18.597656 20.503906 21.136719 20.78125 21.742188 L 20.867188 21.894531 C 20.070312 20.871094 20.574219 19.066406 20.816406 17.964844 " fill-opacity="1" fill-rule="evenodd"/><path fill="#000000" d="M 22.820312 19.242188 C 22.953125 17.980469 22.960938 17.207031 21.707031 16.773438 C 23.285156 17.023438 23.214844 17.894531 22.820312 19.242188 " fill-opacity="1" fill-rule="evenodd"/><path fill="#000000" d="M 19.378906 24.789062 C 21.722656 23.582031 21.917969 22.074219 24.707031 23.992188 C 22.039062 22.507812 21.824219 23.808594 19.378906 24.789062 " fill-opacity="1" fill-rule="evenodd"/><path fill="#000000" d="M 16.667969 28.597656 C 17.015625 27.820312 16.78125 28.183594 17.390625 27.523438 C 17.074219 28.375 17.324219 28.023438 16.667969 28.597656 " fill-opacity="1" fill-rule="evenodd"/><path fill="#000000" d="M 18.542969 25.636719 C 18.378906 25.96875 18.902344 26.089844 18.949219 25.46875 C 19.386719 26.5625 17.984375 26.074219 18.542969 25.636719 " fill-opacity="1" fill-rule="evenodd"/><path fill="#000000" d="M 18.449219 22.363281 C 19.816406 21.992188 20.453125 21.445312 21.472656 22.960938 C 21.660156 23.238281 21.574219 23.128906 21.726562 23.308594 C 21.546875 23.152344 21.648438 23.25 21.421875 23 C 20.371094 21.855469 19.730469 22.210938 18.449219 22.363281 " fill-opacity="1" fill-rule="evenodd"/><path fill="#000000" d="M 17.222656 14.972656 C 16.152344 16.636719 15.136719 16.714844 13.273438 16.980469 C 13.273438 16.980469 13.085938 17.003906 13.035156 17.027344 C 12.667969 18 12.453125 21.015625 12.976562 21.882812 C 12.980469 21.882812 12.980469 21.886719 12.980469 21.890625 C 12.546875 21.574219 12.5 18.417969 12.550781 17.914062 C 12.621094 17.234375 12.566406 16.78125 13.246094 16.722656 C 15.097656 16.566406 16.074219 16.554688 17.222656 14.972656 Z M 13.03125 17.03125 C 13.027344 17.035156 13.023438 17.035156 13.023438 17.035156 C 13.027344 17.035156 13.027344 17.03125 13.03125 17.03125 Z M 12.980469 21.890625 C 12.996094 21.902344 13.007812 21.90625 13.027344 21.910156 C 13.011719 21.90625 12.996094 21.898438 12.980469 21.890625 " fill-opacity="1" fill-rule="evenodd"/><path fill="#000000" d="M 10.292969 14.472656 C 10.292969 14.472656 10.296875 14.472656 10.296875 14.472656 C 10.296875 14.472656 10.292969 14.472656 10.292969 14.472656 Z M 10.296875 14.472656 C 10.3125 14.476562 10.335938 14.492188 10.375 14.515625 C 10.34375 14.492188 10.316406 14.476562 10.296875 14.472656 Z M 10.375 14.515625 C 10.707031 14.726562 11.894531 15.644531 12.277344 15.839844 C 12.890625 16.148438 14.492188 16.652344 15.167969 16.734375 C 14.6875 16.726562 13.164062 16.457031 12.695312 16.304688 C 11.746094 16 10.707031 14.761719 10.375 14.515625 " fill-opacity="1" fill-rule="evenodd"/><path fill="#000000" d="M 10.445312 14.519531 C 10.851562 13.871094 10.632812 14.191406 11.109375 13.550781 C 12.25 13.84375 13.652344 15.054688 13.269531 16.351562 C 13.464844 15.226562 12 14.027344 11.082031 13.675781 C 10.691406 14.230469 10.902344 13.949219 10.445312 14.519531 " fill-opacity="1" fill-rule="evenodd"/><path fill="#000000" d="M 15.339844 16.5 C 15.371094 15.472656 15.847656 14.683594 16.714844 14.066406 C 16.90625 13.929688 17.167969 14.910156 17.1875 15.019531 C 17.015625 14.53125 16.9375 14.542969 16.757812 14.242188 C 16.136719 14.988281 15.515625 15.523438 15.339844 16.5 " fill-opacity="1" fill-rule="evenodd"/><path fill="#000000" d="M 13.839844 17.984375 C 13.917969 17.625 13.382812 17.628906 13.488281 18.242188 C 12.800781 17.28125 14.277344 17.429688 13.839844 17.984375 " fill-opacity="1" fill-rule="evenodd"/><path fill="#000000" d="M 16.808594 18.027344 C 17.121094 17.832031 16.738281 17.460938 16.371094 17.964844 C 16.578125 16.804688 17.515625 17.945312 16.808594 18.027344 " fill-opacity="1" fill-rule="evenodd"/><path fill="#000000" d="M 14.074219 21.742188 C 14.15625 21.382812 13.617188 21.390625 13.722656 22.003906 C 13.035156 21.039062 14.515625 21.191406 14.074219 21.742188 " fill-opacity="1" fill-rule="evenodd"/><path fill="#000000" d="M 17.042969 21.785156 C 17.359375 21.589844 16.976562 21.21875 16.609375 21.726562 C 16.8125 20.566406 17.75 21.703125 17.042969 21.785156 " fill-opacity="1" fill-rule="evenodd"/><path fill="#ffffff" d="M 9.78125 7.285156 C 9.355469 7.308594 9.070312 7.242188 8.574219 7.296875 C 7.820312 7.375 7.152344 6.394531 7.277344 5.625 C 7.277344 5.625 7.28125 5.023438 7.28125 5.023438 C 6.925781 4.550781 6.867188 3.957031 7.390625 3.449219 C 7.46875 3.375 7.921875 2.902344 8.230469 2.84375 C 8.308594 2.636719 8.402344 2.457031 8.496094 2.363281 C 9.824219 1.066406 10.523438 1.664062 11.371094 1.867188 C 11.613281 0.988281 13.132812 0.375 14.023438 0.648438 C 14.175781 0.695312 14.84375 0.941406 14.972656 0.9375 C 15.902344 0.90625 17.390625 0 18.324219 2.035156 C 18.507812 2.277344 18.625 2.5625 18.621094 2.855469 C 18.609375 3.597656 19.21875 3.675781 19.109375 4.304688 C 18.929688 5.359375 17.589844 4.890625 17.40625 5.523438 C 17.535156 6.167969 17.476562 6.449219 17.300781 7.097656 C 17.582031 5.523438 10.820312 7.128906 10.125 8.003906 C 10.085938 7.863281 10.019531 7.699219 9.882812 7.464844 C 9.851562 7.414062 9.820312 7.347656 9.789062 7.277344 L 9.78125 7.285156 " fill-opacity="1" fill-rule="evenodd"/><path fill="#e5e5e5" d="M 10.898438 4.902344 C 10.898438 4.902344 10.160156 5.230469 9.835938 4.632812 C 9.511719 4.035156 8.519531 4.425781 8.519531 4.425781 C 8.519531 4.425781 9.199219 4.042969 9.65625 4.128906 C 10.113281 4.214844 10.828125 4.722656 11.214844 4.734375 C 11.605469 4.75 10.898438 4.902344 10.898438 4.902344 " fill-opacity="1" fill-rule="evenodd"/><path fill="#e5e5e5" d="M 8.140625 5.324219 C 8.140625 5.324219 8.214844 6.125 8.84375 6.277344 C 9.472656 6.425781 9.769531 7.234375 9.769531 7.234375 C 9.769531 7.234375 9.507812 5.707031 9.589844 5.578125 C 9.671875 5.449219 9.550781 5.515625 9.550781 5.515625 C 9.550781 5.515625 8.894531 5.855469 8.140625 5.324219 " fill-opacity="1" fill-rule="evenodd"/><path fill="#e5e5e5" d="M 13.378906 3.539062 C 12.679688 3.914062 11.976562 3.867188 11.449219 3.550781 C 11.449219 3.550781 11.878906 4.183594 12.96875 4.203125 C 14.0625 4.21875 15.277344 4.261719 15.277344 4.261719 C 15.277344 4.261719 14.738281 4.109375 14.503906 4.007812 C 14.269531 3.910156 13.777344 3.609375 13.378906 3.539062 " fill-opacity="1" fill-rule="evenodd"/><path fill="#eaebeb" d="M 17.421875 5.605469 C 17.421875 5.605469 17.351562 5.019531 17.058594 4.761719 C 16.761719 4.5 15.375 4.003906 15.375 4.003906 C 15.375 4.003906 16.816406 3.996094 17.226562 3.609375 C 17.636719 3.226562 17.621094 3 17.621094 3 C 17.621094 3 17.71875 3.585938 17.480469 4.03125 C 17.089844 4.765625 18.070312 4.675781 18.25 4.878906 C 18.25 4.878906 17.433594 5.027344 17.421875 5.605469 " fill-opacity="1" fill-rule="evenodd"/><path fill="#e5e5e5" d="M 12.472656 6.992188 C 12.472656 6.992188 11.796875 6.171875 12.101562 4.773438 C 11.261719 4.722656 10.441406 4.988281 10.078125 5.117188 C 9.710938 5.246094 9.457031 5.363281 9.523438 6.070312 C 9.59375 6.777344 9.863281 7.921875 10.136719 8.042969 C 10.410156 8.164062 10.652344 7.214844 12.472656 6.992188 " fill-opacity="1" fill-rule="evenodd"/><path fill="#ffd9a8" d="M 17.339844 7.066406 C 17.003906 8.234375 17.773438 7.851562 17.449219 9.148438 C 17.804688 9.839844 17.914062 10.550781 17.707031 11.308594 C 17.503906 12.046875 17.300781 12.144531 17.011719 12.808594 C 16.613281 13.734375 17 15.605469 15.8125 14.996094 C 15.511719 14.839844 14.859375 15.980469 13.902344 14.683594 C 13.445312 14.070312 13.40625 14.042969 12.628906 13.753906 C 12.421875 13.679688 12.074219 13.449219 11.855469 13.199219 C 11.484375 12.769531 11.296875 12.195312 11.199219 11.339844 C 11.042969 11.425781 10.691406 11.386719 10.4375 11.164062 L 10.140625 9.886719 L 9.785156 9.132812 L 9.871094 8.808594 L 9.992188 8.722656 L 10.289062 8.628906 L 10.53125 7.699219 L 11.675781 7.164062 L 16.53125 6.464844 C 17.015625 6.554688 17.230469 6.632812 17.339844 7.066406 " fill-opacity="1" fill-rule="evenodd"/><path fill="#ffe2be" d="M 16.703125 7.875 C 17.3125 7.890625 17.304688 7.902344 17.304688 7.902344 L 17.449219 8.171875 C 17.449219 8.171875 17.109375 8.0625 16.597656 8.269531 C 16.089844 8.476562 15.425781 8.761719 15.425781 8.761719 C 15.898438 8.113281 16.246094 7.859375 16.703125 7.875 " fill-opacity="1" fill-rule="evenodd"/><path fill="#ffe2be" d="M 15.742188 10.644531 C 15.742188 10.644531 15.761719 10.382812 15.710938 10.128906 C 15.65625 9.875 15.546875 9.679688 15.546875 9.679688 C 15.574219 9.800781 15.671875 10.417969 15.679688 10.730469 C 15.765625 10.917969 15.648438 11.113281 15.605469 11.171875 C 15.507812 11.308594 15.261719 11.332031 15.140625 11.320312 C 14.949219 11.300781 14.964844 11.144531 14.964844 11.144531 C 14.964844 11.144531 14.964844 11.464844 15.175781 11.476562 C 15.390625 11.488281 15.707031 11.363281 15.761719 11.210938 C 15.820312 11.054688 15.828125 10.839844 15.742188 10.644531 " fill-opacity="1" fill-rule="evenodd"/><path fill="#e2c198" d="M 14.960938 11.820312 C 14.960938 11.820312 15.097656 11.722656 15.363281 11.730469 C 15.628906 11.734375 15.785156 11.664062 15.785156 11.664062 L 15.738281 11.257812 L 15.3125 11.480469 L 15.046875 11.457031 L 14.960938 11.820312 " fill-opacity="1" fill-rule="evenodd"/><path fill="#e2c198" d="M 16.261719 10.800781 C 16.292969 10.816406 16.335938 10.832031 16.390625 10.859375 C 16.757812 11.027344 16.90625 11.132812 16.839844 11.597656 C 16.808594 11.832031 16.683594 12.050781 16.566406 12.253906 C 16.5625 12.257812 16.5625 12.261719 16.5625 12.265625 C 17.085938 10.984375 16.566406 11.15625 16.261719 10.800781 " fill-opacity="1" fill-rule="evenodd"/><path fill="#e2c198" d="M 13.710938 11.125 C 13.453125 11.222656 13.128906 11.253906 13.027344 11.550781 C 12.859375 12.054688 13.054688 12.472656 13.203125 12.882812 C 13.167969 12.585938 12.648438 11.492188 13.710938 11.125 " fill-opacity="1" fill-rule="evenodd"/><path fill="#e2c198" d="M 12.457031 7.054688 C 12.429688 7.382812 12.441406 7.875 12.652344 8.199219 C 12.320312 8.519531 12.078125 9.082031 12.550781 9.75 C 12.25 10.128906 12.175781 11.550781 13.15625 12.496094 C 14.207031 13.320312 14.359375 14.953125 14.914062 15.023438 C 15.757812 15.125 15.832031 13.671875 15.261719 13.664062 C 14.957031 13.65625 14.734375 13.722656 14.734375 13.722656 C 14.734375 13.722656 15.378906 13.214844 15.773438 13.492188 C 16.113281 13.730469 16.808594 14.34375 16.628906 14.710938 C 16.449219 15.082031 16.152344 15.097656 16.039062 15.085938 C 15.96875 15.066406 15.894531 15.039062 15.8125 14.996094 C 15.785156 14.980469 15.757812 14.976562 15.722656 14.980469 C 15.546875 15.003906 15.296875 15.242188 14.976562 15.300781 C 14.957031 15.300781 14.933594 15.304688 14.914062 15.308594 C 14.628906 15.335938 14.324219 15.183594 13.902344 14.683594 C 13.382812 14.074219 13.347656 14.046875 12.628906 13.753906 C 12.421875 13.671875 12.074219 13.449219 11.855469 13.199219 C 11.484375 12.769531 11.296875 12.195312 11.199219 11.339844 C 11.042969 11.425781 10.691406 11.386719 10.4375 11.164062 L 10.140625 9.886719 L 9.785156 9.132812 L 9.871094 8.808594 L 9.992188 8.722656 L 10.289062 8.628906 L 10.53125 7.699219 L 11.675781 7.164062 L 12.457031 7.054688 " fill-opacity="1" fill-rule="evenodd"/><path fill="#000000" d="M 14.050781 10.667969 C 14.117188 11.566406 12.445312 10.582031 13.222656 12.875 C 13.125 12.632812 13 12.363281 12.96875 12.085938 C 12.808594 10.808594 14.066406 11.417969 14.050781 10.667969 " fill-opacity="1" fill-rule="evenodd"/><path fill="#000000" d="M 16.101562 10.601562 C 16.28125 11.070312 17.28125 10.777344 16.742188 11.941406 C 16.742188 11.945312 16.554688 12.222656 16.558594 12.265625 C 16.550781 12.222656 16.71875 11.9375 16.71875 11.933594 C 17.152344 10.800781 16.25 11.082031 16.101562 10.601562 " fill-opacity="1" fill-rule="evenodd"/><path fill="#e2c198" d="M 15.519531 8.703125 C 15.519531 8.703125 15.726562 9.125 15.941406 9.210938 C 16.15625 9.292969 16.207031 9.332031 16.433594 9.316406 C 16.65625 9.300781 17.09375 9.078125 17.09375 9.078125 C 17.09375 9.078125 17.398438 9.25 17.429688 9.148438 C 17.464844 9.046875 17.492188 8.589844 17.492188 8.589844 L 17.117188 8.160156 L 16.296875 8.332031 L 15.519531 8.703125 " fill-opacity="1" fill-rule="evenodd"/><path fill="#e2c198" d="M 14.25 8.738281 C 14.210938 8.929688 14.105469 9.152344 14 9.269531 C 13.734375 9.546875 13.339844 9.542969 13.101562 9.570312 C 12.878906 9.59375 12.550781 9.75 12.550781 9.75 C 12.550781 9.75 12.40625 9.613281 12.355469 9.519531 C 12.304688 9.425781 12.195312 8.976562 12.195312 8.976562 L 12.492188 8.242188 L 13.355469 8.328125 L 14.25 8.738281 " fill-opacity="1" fill-rule="evenodd"/><path fill="#e2c198" d="M 14.3125 8.636719 C 14.324219 8.628906 14.488281 8.703125 14.628906 9.070312 C 14.699219 9.246094 14.816406 9.441406 14.808594 9.804688 C 14.800781 10.089844 14.863281 10.324219 14.867188 10.503906 C 14.882812 11.011719 14.878906 11.121094 15 11.269531 C 15.160156 11.46875 14.746094 11.28125 14.53125 11.257812 C 14.394531 11.246094 14.234375 11.164062 14.21875 11.035156 C 14.210938 10.960938 14.300781 10.878906 14.347656 10.769531 C 14.472656 10.472656 14.429688 10.082031 14.320312 9.734375 C 14.265625 9.550781 14.058594 9.320312 13.996094 9.273438 C 14.054688 9.144531 14.070312 9 14.3125 8.636719 " fill-opacity="1" fill-rule="evenodd"/><path fill="#ffffff" d="M 12.632812 9.59375 C 12.632812 9.59375 13.089844 9.144531 13.390625 9.144531 C 13.695312 9.148438 13.777344 9.101562 13.996094 9.273438 C 13.492188 9.617188 13.28125 9.605469 12.632812 9.59375 " fill-opacity="1" fill-rule="evenodd"/><path fill="#2b2a29" d="M 17.347656 8.632812 C 17.148438 7.96875 15.765625 8.617188 15.410156 8.773438 C 16.097656 8.296875 17.34375 7.46875 17.824219 8.550781 C 17.847656 8.679688 17.757812 8.804688 17.625 8.828125 C 17.496094 8.851562 17.371094 8.761719 17.347656 8.632812 " fill-opacity="1" fill-rule="evenodd"/><path fill="#2b2a29" d="M 12.542969 9.644531 C 13.105469 9.066406 13.351562 8.71875 14.050781 9.308594 C 14.054688 9.3125 14.054688 9.316406 14.058594 9.320312 C 14.054688 9.316406 14.054688 9.316406 14.054688 9.316406 C 13.582031 8.929688 12.902344 9.40625 12.542969 9.644531 " fill-opacity="1" fill-rule="evenodd"/><path fill="#2b2a29" d="M 14.664062 13.773438 C 15.8125 12.886719 15.921875 13.671875 16.113281 13.777344 C 15.882812 13.714844 15.894531 13.246094 14.664062 13.773438 " fill-opacity="1" fill-rule="evenodd"/><path fill="#2b2a29" d="M 17.320312 7.070312 C 17.070312 8.355469 17.695312 7.722656 17.460938 9.144531 C 18.449219 11.441406 17.226562 11.679688 16.894531 13.640625 C 16.691406 14.832031 16.886719 15.390625 15.746094 15.070312 C 15.453125 14.988281 14.867188 16.042969 13.832031 14.722656 C 12.683594 13.25 11.46875 14.179688 11.199219 11.339844 C 11.542969 14.160156 12.707031 13.167969 13.929688 14.652344 C 14.976562 15.917969 15.335938 14.726562 15.835938 14.917969 C 16.992188 15.363281 16.347656 13.804688 17.128906 12.367188 C 18.394531 10.046875 17.328125 9.574219 17.402344 9.140625 C 17.65625 7.703125 17.035156 8.34375 17.320312 7.070312 " fill-opacity="1" fill-rule="evenodd"/><path fill="#c8aa86" d="M 11.660156 10.53125 C 12.847656 11.132812 12.191406 11.96875 12.78125 13.023438 L 13.019531 13.410156 L 12.742188 13.046875 C 11.929688 11.875 12.765625 11.230469 11.660156 10.53125 " fill-opacity="1" fill-rule="evenodd"/><path fill="#2b2a29" d="M 10.886719 9.296875 C 10.597656 8.492188 9.300781 8.515625 10.09375 9.601562 C 10.449219 10.085938 10.109375 11.527344 11.132812 11.367188 C 11.160156 11.363281 11.175781 11.355469 11.199219 11.339844 C 11.167969 11.367188 11.140625 11.378906 11.097656 11.378906 C 10.011719 11.457031 10.367188 10.355469 9.921875 9.722656 C 9.085938 8.535156 10.613281 8.238281 10.886719 9.296875 " fill-opacity="1" fill-rule="evenodd"/><path fill="#2b2a29" d="M 17.34375 7.980469 C 17.03125 7.328125 17.207031 7.082031 17.433594 6.398438 C 17.40625 6.851562 17.265625 7.570312 17.34375 7.980469 " fill-opacity="1" fill-rule="evenodd"/><path fill="#2b2a29" d="M 10.304688 8.65625 C 9.898438 7.640625 9.445312 6.96875 9.535156 5.816406 C 9.570312 6.386719 9.601562 6.539062 9.816406 7.085938 C 10.144531 7.917969 10.105469 7.84375 10.304688 8.65625 " fill-opacity="1" fill-rule="evenodd"/><path fill="#000000" d="M 13.382812 9.074219 C 13.523438 9.0625 13.644531 9.160156 13.65625 9.296875 C 13.667969 9.433594 13.566406 9.554688 13.429688 9.566406 C 13.289062 9.578125 13.167969 9.480469 13.15625 9.34375 C 13.144531 9.207031 13.246094 9.085938 13.382812 9.074219 " fill-opacity="1" fill-rule="evenodd"/><path fill="#2b2a29" d="M 14.179688 8.457031 C 13.859375 8.496094 12.445312 7.441406 11.855469 8.734375 C 11.835938 8.773438 11.832031 8.867188 11.824219 8.910156 C 11.832031 8.882812 11.859375 8.777344 11.878906 8.753906 C 12.617188 7.640625 13.554688 8.875 14.226562 8.933594 C 14.359375 8.921875 14.457031 8.804688 14.445312 8.671875 C 14.433594 8.542969 14.3125 8.445312 14.179688 8.457031 " fill-opacity="1" fill-rule="evenodd"/><path fill="#ffffff" d="M 15.328125 11.726562 C 16.714844 11.730469 16.347656 11.695312 16.335938 11.933594 C 16.324219 12.101562 16.257812 12.261719 15.75 12.796875 C 15.515625 12.761719 15.515625 12.816406 15.285156 12.972656 C 15.285156 12.972656 14.746094 12.984375 14.328125 12.792969 C 13.914062 12.605469 13.878906 12.53125 13.789062 12.222656 C 13.789062 12.222656 14.167969 12.078125 15.328125 11.726562 " fill-opacity="1" fill-rule="evenodd"/><path fill="#2b2a29" d="M 15.269531 11.726562 C 15.390625 11.71875 16.597656 11.574219 16.46875 11.800781 C 16.261719 12.148438 16.523438 12.0625 15.921875 12.707031 C 15.632812 13.019531 15.648438 12.796875 15.246094 12.996094 C 14.890625 13.171875 13.828125 12.777344 13.75 12.214844 C 14.0625 11.910156 14.867188 11.839844 15.269531 11.726562 Z M 15.269531 11.726562 C 14.90625 11.851562 14.296875 11.996094 13.9375 12.121094 C 13.5625 12.550781 14.871094 12.925781 15.1875 12.832031 C 15.507812 12.65625 15.613281 12.792969 15.742188 12.691406 C 16.332031 12.222656 16.199219 12.097656 16.386719 11.78125 C 16.191406 11.769531 15.394531 11.726562 15.269531 11.726562 Z M 16.417969 11.78125 L 16.417969 11.78125 " fill-opacity="1" fill-rule="evenodd"/><path fill="#2b2a29" d="M 13.949219 12.414062 C 14.257812 12.539062 14.792969 12.433594 15.167969 12.4375 C 14.757812 12.476562 14.269531 12.636719 13.914062 12.53125 C 13.882812 12.519531 13.867188 12.480469 13.875 12.449219 C 13.886719 12.417969 13.917969 12.402344 13.949219 12.414062 " fill-opacity="1" fill-rule="evenodd"/><path fill="#2b2a29" d="M 16.308594 11.945312 C 16.164062 12.152344 15.859375 12.203125 15.660156 12.3125 C 15.886719 12.234375 16.175781 12.253906 16.351562 12.046875 C 16.363281 12.027344 16.367188 11.984375 16.355469 11.957031 C 16.34375 11.929688 16.324219 11.921875 16.308594 11.945312 " fill-opacity="1" fill-rule="evenodd"/><path fill="#2b2a29" d="M 15.917969 11.21875 C 16.324219 11.328125 17.699219 11.839844 17.988281 11.089844 C 18.0625 10.894531 17.960938 11.121094 18.0625 10.894531 C 18.105469 10.996094 18.113281 10.980469 18.105469 11.09375 C 18.035156 12.136719 16.175781 11.765625 15.75 11.699219 C 15.628906 11.671875 15.574219 11.546875 15.617188 11.414062 C 15.664062 11.28125 15.800781 11.191406 15.917969 11.21875 " fill-opacity="1" fill-rule="evenodd"/><path fill="#2b2a29" d="M 14.765625 11.351562 C 14.339844 11.550781 12.9375 12.382812 12.472656 11.613281 C 12.351562 11.417969 12.503906 11.644531 12.347656 11.417969 C 12.324219 11.535156 12.3125 11.519531 12.34375 11.640625 C 12.628906 12.769531 14.59375 12.003906 15.046875 11.84375 C 15.171875 11.792969 15.210938 11.640625 15.132812 11.503906 C 15.054688 11.371094 14.890625 11.300781 14.765625 11.351562 " fill-opacity="1" fill-rule="evenodd"/><path fill="#2b2a29" d="M 15.4375 8.835938 C 15.578125 9.574219 15.8125 10.070312 15.742188 10.644531 C 15.742188 10.5625 15.742188 10.445312 15.734375 10.363281 C 15.679688 9.914062 15.523438 9.984375 15.4375 8.835938 " fill-opacity="1" fill-rule="evenodd"/><path fill="#2b2a29" d="M 14.390625 10.765625 C 14.160156 11.070312 14.28125 11.175781 14.613281 11.257812 C 13.949219 11.394531 13.976562 10.972656 14.390625 10.765625 " fill-opacity="1" fill-rule="evenodd"/><path fill="#2b2a29" d="M 14.550781 11.058594 C 14.683594 11.074219 15.515625 11.707031 15.785156 11.09375 C 15.769531 11.1875 15.769531 11.230469 15.699219 11.308594 C 15.144531 11.929688 14.730469 11.128906 14.550781 11.058594 " fill-opacity="1" fill-rule="evenodd"/><path fill="#2b2a29" d="M 15.746094 10.550781 C 16.210938 10.644531 16.25 10.988281 15.886719 11.199219 C 16.113281 10.863281 16.039062 10.792969 15.746094 10.550781 " fill-opacity="1" fill-rule="evenodd"/><path fill="#2b2a29" d="M 14.335938 9.0625 C 14.179688 9.566406 13.957031 9.707031 13.460938 9.886719 C 13.859375 9.6875 14.15625 9.472656 14.335938 9.0625 " fill-opacity="1" fill-rule="evenodd"/><path fill="#2b2a29" d="M 15.671875 9.09375 C 15.898438 9.328125 16.304688 9.695312 16.644531 9.738281 C 16.207031 9.734375 15.90625 9.40625 15.671875 9.09375 " fill-opacity="1" fill-rule="evenodd"/><path fill="#2b2a29" d="M 12.632812 9.59375 C 13.109375 9.554688 13.425781 9.605469 13.828125 9.375 L 13.847656 9.359375 C 13.570312 9.695312 12.996094 9.605469 12.632812 9.59375 " fill-opacity="1" fill-rule="evenodd"/><path fill="#ffffff" d="M 15.933594 9.125 C 15.933594 9.125 16.160156 8.953125 16.460938 8.957031 C 16.761719 8.957031 16.847656 8.910156 17.066406 9.082031 C 16.5625 9.425781 16.132812 9.347656 15.933594 9.125 " fill-opacity="1" fill-rule="evenodd"/><path fill="#000000" d="M 15.933594 9.125 C 16.308594 8.589844 16.878906 8.699219 17.207031 9.171875 C 16.988281 8.980469 16.257812 8.847656 15.933594 9.125 " fill-opacity="1" fill-rule="evenodd"/><path fill="#000000" d="M 16.421875 8.824219 C 16.546875 8.792969 16.675781 8.867188 16.707031 8.988281 C 16.738281 9.113281 16.664062 9.238281 16.539062 9.269531 C 16.414062 9.300781 16.285156 9.226562 16.253906 9.105469 C 16.21875 8.980469 16.296875 8.855469 16.421875 8.824219 " fill-opacity="1" fill-rule="evenodd"/><path fill="#000000" d="M 16.25 9.324219 C 16.617188 9.257812 16.832031 9.230469 17.144531 9.035156 C 16.804688 9.324219 16.699219 9.308594 16.25 9.324219 " fill-opacity="1" fill-rule="evenodd"/><path fill="#2b2a29" d="M 10.804688 10.644531 C 10.722656 10.84375 10.726562 11.066406 10.996094 11.128906 C 11.113281 11.15625 11.164062 11.074219 11.210938 10.984375 C 11.085938 11.375 10.488281 11.144531 10.804688 10.644531 " fill-opacity="1" fill-rule="evenodd"/><path fill="#2b2a29" d="M 10.078125 9.398438 C 9.855469 8.769531 10.601562 8.917969 10.828125 9.625 C 10.859375 9.730469 10.855469 9.753906 10.894531 9.855469 C 10.875 9.824219 10.859375 9.789062 10.84375 9.753906 C 10.574219 9.085938 9.925781 8.757812 10.078125 9.398438 " fill-opacity="1" fill-rule="evenodd"/><path fill="#2b2a29" d="M 10.902344 10.023438 C 10.890625 10.128906 10.882812 10.316406 10.871094 10.398438 C 10.867188 10.394531 10.867188 10.398438 10.863281 10.390625 C 10.945312 10.519531 10.992188 10.550781 11.058594 10.652344 C 10.742188 10.367188 10.714844 10.511719 10.902344 10.023438 " fill-opacity="1" fill-rule="evenodd"/><path fill="#2b2a29" d="M 16.621094 7.898438 C 16.964844 7.785156 16.964844 7.792969 17.304688 7.902344 C 17.066406 7.875 16.859375 7.871094 16.621094 7.898438 " fill-opacity="1" fill-rule="evenodd"/><path fill="#2b2a29" d="M 11.601562 8.378906 C 11.863281 7.839844 11.808594 7.820312 12.53125 7.871094 C 11.851562 7.902344 11.910156 7.902344 11.601562 8.378906 " fill-opacity="1" fill-rule="evenodd"/><path fill="#000000" d="M 14.140625 8.007812 C 14.449219 8.285156 14.40625 8.410156 14.429688 8.816406 C 14.359375 8.492188 14.347656 8.261719 14.140625 8.007812 " fill-opacity="1" fill-rule="evenodd"/><path fill="#2b2a29" d="M 15.429688 8.816406 C 15.359375 8.472656 15.21875 8.257812 15.183594 8.050781 L 15.175781 8.027344 L 15.195312 8.070312 C 15.414062 8.460938 15.414062 8.359375 15.429688 8.816406 " fill-opacity="1" fill-rule="evenodd"/><path fill="#2b2a29" d="M 14.417969 8.613281 C 14.640625 9.085938 14.710938 9.085938 14.597656 9.566406 C 14.628906 9.140625 14.550781 9.027344 14.417969 8.613281 " fill-opacity="1" fill-rule="evenodd"/><path fill="#2b2a29" d="M 14.867188 10.503906 C 14.894531 10.953125 14.855469 11.246094 15.304688 11.398438 C 14.765625 11.289062 14.835938 10.976562 14.867188 10.503906 " fill-opacity="1" fill-rule="evenodd"/><path fill="#2b2a29" d="M 14.835938 10.421875 C 14.707031 9.71875 14.726562 10.070312 14.78125 9.375 C 14.820312 10.0625 14.800781 9.714844 14.835938 10.421875 " fill-opacity="1" fill-rule="evenodd"/><path fill="#2b2a29" d="M 14.9375 7.871094 C 15.46875 7.445312 16.167969 7.414062 16.824219 7.300781 C 16.269531 7.4375 15.382812 7.566406 14.9375 7.871094 " fill-opacity="1" fill-rule="evenodd"/><path fill="#2b2a29" d="M 13.367188 7.734375 C 13.585938 7.664062 14.136719 7.835938 14.335938 7.863281 L 14.808594 7.898438 L 14.332031 7.910156 C 14.058594 7.886719 13.566406 7.691406 13.367188 7.734375 " fill-opacity="1" fill-rule="evenodd"/><path fill="#2b2a29" d="M 10.070312 8.125 C 10.148438 7.433594 13.527344 6.589844 14.125 6.507812 C 14.699219 6.425781 17.453125 6.03125 17.300781 7.097656 C 17.355469 6.394531 16.230469 6.464844 15.757812 6.496094 C 14.984375 6.542969 10.210938 7.339844 10.070312 8.125 " fill-opacity="1" fill-rule="evenodd"/><path fill="#2b2a29" d="M 9.589844 5.863281 C 9.523438 4.9375 10.039062 5.136719 10.746094 4.898438 C 11.28125 4.722656 11.304688 4.675781 11.902344 4.585938 C 12.300781 4.523438 12.410156 4.65625 12.730469 4.644531 C 12.460938 4.671875 12.53125 4.597656 12.160156 4.601562 C 11.875 4.601562 11.324219 4.78125 11.050781 4.890625 C 10.1875 5.246094 9.582031 4.871094 9.589844 5.863281 " fill-opacity="1" fill-rule="evenodd"/><path fill="#2b2a29" d="M 13.039062 4.261719 C 14.160156 4.128906 15.070312 4.042969 16.121094 4.570312 C 15.242188 4.210938 13.984375 4.222656 13.039062 4.261719 " fill-opacity="1" fill-rule="evenodd"/><path fill="#2b2a29" d="M 16.320312 4.40625 C 17.175781 4.644531 17.425781 4.921875 17.503906 5.8125 C 17.554688 6.371094 17.308594 7 17.148438 7.539062 C 17.285156 6.941406 17.464844 6.433594 17.394531 5.824219 C 17.296875 4.933594 17.210938 4.710938 16.320312 4.40625 " fill-opacity="1" fill-rule="evenodd"/><path fill="#2b2a29" d="M 17.402344 5.859375 C 17.273438 4.707031 18.664062 5.449219 19.027344 4.492188 C 19.277344 3.832031 18.726562 3.671875 18.621094 3.105469 C 18.527344 2.621094 18.675781 2.5 18.28125 1.996094 C 18.0625 1.714844 17.863281 1.589844 17.546875 1.429688 C 17.867188 1.582031 18.070312 1.707031 18.300781 1.984375 C 18.710938 2.484375 18.5625 2.609375 18.667969 3.097656 C 18.785156 3.644531 19.367188 3.808594 19.078125 4.511719 C 18.675781 5.5 17.300781 4.703125 17.402344 5.859375 " fill-opacity="1" fill-rule="evenodd"/><path fill="#2b2a29" d="M 9.78125 7.28125 C 9.578125 7.289062 8.402344 7.324219 8.289062 7.300781 C 7.691406 7.175781 7.285156 6.484375 7.253906 5.917969 C 7.25 5.851562 7.273438 5.332031 7.277344 5.207031 C 7.28125 5.335938 7.273438 5.84375 7.28125 5.917969 C 7.328125 6.449219 7.753906 7.113281 8.300781 7.25 C 8.40625 7.273438 9.582031 7.28125 9.78125 7.28125 " fill-opacity="1" fill-rule="evenodd"/><path fill="#2b2a29" d="M 7.855469 5.949219 C 6.949219 4.542969 6.429688 3.929688 8.082031 2.871094 C 6.542969 3.9375 7.027344 4.550781 7.855469 5.949219 " fill-opacity="1" fill-rule="evenodd"/><path fill="#2b2a29" d="M 8.007812 3.878906 C 8.082031 2.835938 8.421875 2.082031 9.441406 1.644531 C 10.683594 1.113281 11.179688 2.371094 12.65625 1.699219 L 12.683594 1.683594 L 12.65625 1.699219 L 12.363281 1.832031 C 11.25 2.234375 10.59375 1.246094 9.464844 1.703125 C 8.449219 2.117188 8.105469 2.851562 8.007812 3.878906 " fill-opacity="1" fill-rule="evenodd"/><path fill="#2b2a29" d="M 11.386719 1.832031 C 11.734375 0.863281 13.066406 0.382812 14.03125 0.617188 C 15.09375 0.878906 14.53125 0.996094 15.753906 0.777344 C 17.136719 0.535156 17.6875 0.785156 18.320312 2.03125 C 17.671875 0.808594 17.132812 0.566406 15.761719 0.832031 C 14.527344 1.074219 15.085938 0.953125 14.015625 0.671875 C 13.066406 0.417969 11.746094 0.882812 11.386719 1.832031 " fill-opacity="1" fill-rule="evenodd"/><path fill="#2b2a29" d="M 17.644531 2.796875 C 17.667969 3.886719 16.0625 4.117188 15.25 3.988281 L 14.925781 3.917969 L 14.386719 3.832031 L 14.277344 3.824219 C 14.632812 3.839844 14.925781 3.910156 15.253906 3.953125 C 16.050781 4.050781 17.632812 3.855469 17.644531 2.796875 " fill-opacity="1" fill-rule="evenodd"/><path fill="#2b2a29" d="M 9.410156 4.09375 C 10.328125 4.105469 10.722656 5.085938 12.53125 4.625 C 13.03125 4.496094 13.710938 4.191406 14.210938 3.992188 C 13.714844 4.207031 13.042969 4.53125 12.542969 4.671875 C 10.765625 5.179688 10.339844 4.132812 9.410156 4.09375 " fill-opacity="1" fill-rule="evenodd"/><path fill="#2b2a29" d="M 8.140625 5.324219 C 8.558594 5.589844 9.265625 5.714844 9.6875 5.402344 C 10.226562 5.003906 9.503906 5.519531 10.015625 5.15625 C 9.53125 5.550781 10.214844 4.988281 9.703125 5.425781 C 9.257812 5.804688 8.574219 5.640625 8.140625 5.324219 " fill-opacity="1" fill-rule="evenodd"/><path fill="#2b2a29" d="M 13.230469 3.511719 C 14.078125 3.550781 14.191406 3.949219 14.792969 4.101562 C 14.21875 4.003906 13.921875 3.601562 13.230469 3.511719 " fill-opacity="1" fill-rule="evenodd"/><path fill="#2b2a29" d="M 10.46875 5.722656 C 10.683594 6.511719 10.546875 6.652344 11.007812 7.382812 C 10.449219 6.636719 10.632812 6.578125 10.46875 5.722656 " fill-opacity="1" fill-rule="evenodd"/><path fill="#2b2a29" d="M 11.816406 9.246094 C 11.652344 8.585938 11.273438 8.675781 11.589844 7.839844 C 11.371094 8.640625 11.71875 8.597656 11.816406 9.246094 " fill-opacity="1" fill-rule="evenodd"/><path fill="#000000" d="M 16.554688 6.496094 C 16.554688 6.496094 16.628906 7.59375 14.070312 7.410156 C 13.730469 7.386719 13.292969 7.304688 12.855469 7.25 C 11.757812 7.109375 10.683594 7.128906 11.308594 8.640625 C 11.742188 9.683594 12.238281 9.996094 12 11.238281 L 11.363281 11.203125 C 11.199219 10.480469 10.933594 9.375 10.863281 9.226562 C 10.761719 9.003906 10.570312 8.703125 10.296875 8.703125 C 10.023438 8.699219 10.121094 7.992188 10.121094 7.992188 C 10.121094 7.992188 11.8125 6.441406 15.996094 6.429688 C 16.199219 6.429688 16.359375 6.445312 16.554688 6.496094 " fill-opacity="1" fill-rule="evenodd"/></svg>