<svg xmlns="http://www.w3.org/2000/svg" xmlns:xlink="http://www.w3.org/1999/xlink" width="40" zoomAndPan="magnify" viewBox="0 0 30 30.000001" height="40" preserveAspectRatio="xMidYMid meet" version="1.0"><defs><clipPath id="475ba5b001"><path d="M 24 4 L 28.117188 4 L 28.117188 11 L 24 11 Z M 24 4 " clip-rule="nonzero"/></clipPath><clipPath id="11a30eecd0"><path d="M 24 10 L 28.117188 10 L 28.117188 17 L 24 17 Z M 24 10 " clip-rule="nonzero"/></clipPath><clipPath id="7ee50984a9"><path d="M 24 16 L 28.117188 16 L 28.117188 23 L 24 23 Z M 24 16 " clip-rule="nonzero"/></clipPath><clipPath id="3358b9e0c8"><path d="M 2 0 L 26 0 L 26 29.03125 L 2 29.03125 Z M 2 0 " clip-rule="nonzero"/></clipPath></defs><g clip-path="url(#475ba5b001)"><path fill="#ef5261" d="M 27.699219 5.03125 L 24.789062 4.03125 C 24.636719 3.972656 24.464844 4 24.328125 4.09375 C 24.199219 4.191406 24.117188 4.339844 24.117188 4.5 L 24.117188 9.574219 C 24.117188 9.851562 24.34375 10.078125 24.621094 10.078125 L 27.53125 10.078125 C 27.808594 10.078125 28.035156 9.851562 28.035156 9.574219 L 28.035156 5.507812 C 28.035156 5.289062 27.898438 5.101562 27.699219 5.03125 Z M 27.699219 5.03125 " fill-opacity="1" fill-rule="nonzero"/></g><g clip-path="url(#11a30eecd0)"><path fill="#f7931e" d="M 27.699219 11.199219 L 24.789062 10.195312 C 24.636719 10.140625 24.464844 10.167969 24.328125 10.261719 C 24.199219 10.355469 24.117188 10.507812 24.117188 10.667969 L 24.117188 15.742188 C 24.117188 16.019531 24.34375 16.242188 24.621094 16.242188 L 27.53125 16.242188 C 27.808594 16.242188 28.035156 16.019531 28.035156 15.742188 L 28.035156 11.667969 C 28.035156 11.453125 27.898438 11.265625 27.699219 11.199219 Z M 27.699219 11.199219 " fill-opacity="1" fill-rule="nonzero"/></g><g clip-path="url(#7ee50984a9)"><path fill="#64b5f6" d="M 27.699219 17.359375 L 24.789062 16.359375 C 24.636719 16.304688 24.464844 16.328125 24.328125 16.421875 C 24.199219 16.519531 24.117188 16.667969 24.117188 16.828125 L 24.117188 21.90625 C 24.117188 22.179688 24.34375 22.40625 24.621094 22.40625 L 27.53125 22.40625 C 27.808594 22.40625 28.035156 22.179688 28.035156 21.90625 L 28.035156 17.828125 C 28.035156 17.621094 27.898438 17.429688 27.699219 17.359375 Z M 27.699219 17.359375 " fill-opacity="1" fill-rule="nonzero"/></g><g clip-path="url(#3358b9e0c8)"><path fill="#dbd8dd" d="M 22.617188 0 L 4.585938 0 C 3.199219 0 2.074219 1.121094 2.074219 2.503906 L 2.074219 26.53125 C 2.074219 27.910156 3.199219 29.03125 4.585938 29.03125 L 22.617188 29.03125 C 24.003906 29.03125 25.128906 27.910156 25.128906 26.53125 L 25.128906 2.503906 C 25.128906 1.121094 24 0 22.617188 0 Z M 22.617188 0 " fill-opacity="1" fill-rule="nonzero"/></g><path fill="#2196f3" d="M 8.101562 14.289062 C 9.5 15.847656 11.5 16.738281 13.601562 16.738281 C 15.714844 16.738281 17.730469 15.835938 19.125 14.265625 C 19.183594 14.199219 19.222656 14.121094 19.242188 14.039062 C 19.257812 13.964844 19.257812 13.890625 19.242188 13.816406 C 18.769531 11.878906 17.363281 10.375 15.5625 9.742188 C 16.328125 9.15625 16.820312 8.238281 16.820312 7.207031 C 16.820312 5.441406 15.375 4.007812 13.605469 4.007812 C 11.832031 4.007812 10.394531 5.445312 10.394531 7.207031 C 10.394531 8.238281 10.886719 9.15625 11.652344 9.742188 C 9.867188 10.375 8.464844 11.859375 7.980469 13.769531 C 7.945312 13.875 7.945312 13.996094 7.984375 14.101562 C 8.007812 14.171875 8.046875 14.234375 8.101562 14.289062 Z M 8.101562 14.289062 " fill-opacity="1" fill-rule="nonzero"/><path fill="#2196f3" d="M 9.804688 19.464844 C 9.53125 19.464844 9.304688 19.691406 9.304688 19.96875 C 9.304688 20.242188 9.53125 20.46875 9.804688 20.46875 L 17.390625 20.46875 C 17.667969 20.46875 17.894531 20.242188 17.894531 19.96875 C 17.894531 19.691406 17.667969 19.464844 17.390625 19.464844 Z M 9.804688 19.464844 " fill-opacity="1" fill-rule="nonzero"/><path fill="#2196f3" d="M 20.925781 23.0625 L 6.277344 23.0625 C 6 23.0625 5.773438 23.285156 5.773438 23.5625 C 5.773438 23.835938 6 24.0625 6.277344 24.0625 L 20.925781 24.0625 C 21.203125 24.0625 21.429688 23.835938 21.429688 23.5625 C 21.429688 23.285156 21.203125 23.0625 20.925781 23.0625 Z M 20.925781 23.0625 " fill-opacity="1" fill-rule="nonzero"/></svg>