<svg xmlns="http://www.w3.org/2000/svg" xmlns:xlink="http://www.w3.org/1999/xlink" width="40" zoomAndPan="magnify" viewBox="0 0 30 30.000001" height="40" preserveAspectRatio="xMidYMid meet" version="1.0"><defs><clipPath id="35a86c9bcc"><path d="M 1.367188 18.445312 L 28.921875 18.445312 L 28.921875 29.03125 L 1.367188 29.03125 Z M 1.367188 18.445312 " clip-rule="nonzero"/></clipPath><clipPath id="5e20ce69bb"><path d="M 10.699219 20.214844 L 19.5625 20.214844 L 19.5625 29.03125 L 10.699219 29.03125 Z M 10.699219 20.214844 " clip-rule="nonzero"/></clipPath><clipPath id="fad2ffeb91"><path d="M 12.71875 20.292969 L 17.382812 20.292969 L 17.382812 29.03125 L 12.71875 29.03125 Z M 12.71875 20.292969 " clip-rule="nonzero"/></clipPath><clipPath id="72272a1b9e"><path d="M 7.664062 18.445312 L 15.207031 18.445312 L 15.207031 29.03125 L 7.664062 29.03125 Z M 7.664062 18.445312 " clip-rule="nonzero"/></clipPath><clipPath id="095e575759"><path d="M 15.128906 18.445312 L 22.671875 18.445312 L 22.671875 29.03125 L 15.128906 29.03125 Z M 15.128906 18.445312 " clip-rule="nonzero"/></clipPath><clipPath id="a7d3b12d98"><path d="M 6.265625 25.601562 L 7.355469 25.601562 L 7.355469 29.03125 L 6.265625 29.03125 Z M 6.265625 25.601562 " clip-rule="nonzero"/></clipPath><clipPath id="ac34397b8e"><path d="M 22.984375 25.601562 L 24 25.601562 L 24 29.03125 L 22.984375 29.03125 Z M 22.984375 25.601562 " clip-rule="nonzero"/></clipPath></defs><g clip-path="url(#35a86c9bcc)"><path fill="#6b809b" d="M 13.6875 23.375 L 10.722656 18.492188 C 6.902344 19.769531 1.921875 20.121094 1.5625 25.207031 C 1.519531 25.851562 1.414062 27.460938 1.367188 29.035156 L 28.921875 29.035156 C 28.875 27.460938 28.769531 25.851562 28.722656 25.207031 C 28.367188 20.121094 23.382812 19.769531 19.566406 18.492188 L 16.601562 23.375 L 13.6875 23.375 " fill-opacity="1" fill-rule="evenodd"/></g><path fill="#000000" d="M 20.675781 5.546875 L 20.574219 7.75 C 21.453125 9.402344 20.554688 10.304688 20.09375 10.632812 C 19.871094 12.53125 18.773438 13.796875 17.386719 14.429688 C 16.707031 14.738281 15.960938 14.890625 15.21875 14.890625 C 14.472656 14.890625 13.730469 14.738281 13.050781 14.429688 C 11.660156 13.796875 10.5625 12.53125 10.34375 10.632812 C 9.878906 10.304688 8.980469 9.402344 9.859375 7.75 L 9.757812 5.546875 L 9.777344 5.398438 C 10.179688 4.023438 11.121094 3.035156 12.289062 2.429688 C 13.234375 1.941406 14.328125 1.703125 15.410156 1.722656 C 16.492188 1.738281 17.570312 2.007812 18.46875 2.53125 C 19.527344 3.148438 20.347656 4.109375 20.664062 5.417969 L 20.675781 5.546875 " fill-opacity="1" fill-rule="nonzero"/><g clip-path="url(#5e20ce69bb)"><path fill="#ffffff" d="M 15.117188 20.285156 C 17.550781 20.285156 19.527344 21.90625 19.527344 23.316406 C 19.527344 24.730469 18.597656 28.519531 17.226562 29.035156 L 13.003906 29.035156 C 11.632812 28.519531 10.703125 24.726562 10.703125 23.316406 C 10.703125 21.90625 12.679688 20.285156 15.117188 20.285156 " fill-opacity="1" fill-rule="evenodd"/></g><g clip-path="url(#fad2ffeb91)"><path fill="#00bcd4" d="M 15.171875 20.316406 L 13.511719 22.050781 L 14.003906 22.675781 L 12.726562 29.035156 L 16.222656 29.035156 L 17.335938 28.988281 L 16.496094 22.679688 L 16.835938 22.050781 L 15.171875 20.316406 " fill-opacity="1" fill-rule="evenodd"/></g><path fill="#d3aa96" d="M 18.867188 13.121094 L 19.050781 16.851562 L 15.054688 20.8125 L 11.296875 16.753906 L 11.46875 13.109375 L 18.867188 13.121094 " fill-opacity="1" fill-rule="evenodd"/><path fill="#02abc1" d="M 14.90625 20.316406 L 13.511719 22.050781 L 14.003906 22.675781 L 14.003906 22.679688 L 16.496094 22.679688 L 16.835938 22.050781 L 15.472656 20.316406 L 14.90625 20.316406 " fill-opacity="1" fill-rule="evenodd"/><path fill="#e8e8e8" d="M 9.625 18.492188 L 11.308594 16.53125 L 15.171875 20.316406 L 12.214844 23.585938 L 9.625 18.492188 " fill-opacity="1" fill-rule="evenodd"/><path fill="#e8e8e8" d="M 20.722656 18.492188 L 19.039062 16.53125 L 15.171875 20.316406 L 18.132812 23.585938 L 20.722656 18.492188 " fill-opacity="1" fill-rule="evenodd"/><path fill="#d3aa96" d="M 20.683594 8.382812 C 20.683594 8.382812 22.578125 11.125 20.109375 12.257812 L 20.683594 8.382812 " fill-opacity="1" fill-rule="evenodd"/><path fill="#d3aa96" d="M 9.664062 8.382812 C 9.664062 8.382812 7.769531 11.125 10.238281 12.257812 L 9.664062 8.382812 " fill-opacity="1" fill-rule="evenodd"/><path fill="#ffceb4" d="M 15.660156 3.15625 C 18.691406 3.15625 20.746094 5.507812 20.746094 9.515625 C 20.746094 12.128906 18.808594 17.484375 15.695312 17.484375 C 15.347656 17.484375 15 17.484375 14.652344 17.484375 C 11.539062 17.484375 9.601562 12.128906 9.601562 9.515625 C 9.601562 5.507812 11.65625 3.15625 14.683594 3.15625 C 15.011719 3.15625 15.335938 3.15625 15.660156 3.15625 " fill-opacity="1" fill-rule="evenodd"/><path fill="#000000" d="M 9.601562 9.515625 C 9.601562 9.515625 8.878906 4.621094 9.710938 4.1875 C 9.550781 3.304688 10.433594 2.515625 11.0625 2.277344 C 11.0625 2.277344 12.15625 1 14.738281 0.742188 C 14.738281 0.742188 18.644531 0.00390625 20.933594 3.554688 C 21.304688 4.128906 21.242188 4 20.824219 4.53125 C 21.117188 6.0625 21.089844 8.113281 20.746094 9.617188 C 20.746094 9.617188 20.144531 5.808594 19.464844 5.308594 C 19.464844 5.308594 15.480469 7.429688 11.082031 4.941406 C 11.082031 4.941406 10.484375 5.378906 10.210938 6.449219 C 10.152344 6.6875 10.113281 6.925781 10.070312 7.207031 C 9.949219 8.015625 9.789062 8.703125 9.601562 9.515625 " fill-opacity="1" fill-rule="evenodd"/><g clip-path="url(#72272a1b9e)"><path fill="#4f6074" d="M 11.285156 29.035156 L 8.394531 23.59375 L 9.292969 22.0625 L 7.671875 21.558594 L 7.976562 19.195312 L 9.753906 18.492188 L 9.835938 18.652344 L 15.144531 29.035156 L 11.285156 29.035156 " fill-opacity="1" fill-rule="evenodd"/></g><g clip-path="url(#095e575759)"><path fill="#4f6074" d="M 19 29.035156 L 21.894531 23.59375 L 20.996094 22.0625 L 22.617188 21.558594 L 22.3125 19.195312 L 20.53125 18.492188 L 20.449219 18.652344 L 15.144531 29.035156 L 19 29.035156 " fill-opacity="1" fill-rule="evenodd"/></g><g clip-path="url(#a7d3b12d98)"><path fill="#4f6074" d="M 6.679688 25.636719 L 7.304688 29.035156 L 6.289062 29.035156 Z M 6.679688 25.636719 " fill-opacity="1" fill-rule="evenodd"/></g><g clip-path="url(#ac34397b8e)"><path fill="#4f6074" d="M 23.605469 25.636719 L 22.984375 29.035156 L 24 29.035156 Z M 23.605469 25.636719 " fill-opacity="1" fill-rule="evenodd"/></g></svg>